<?xml version="1.0" encoding="utf-8"?>
<!-- Generator: Adobe Illustrator 21.0.0, SVG Export Plug-In . SVG Version: 6.00 Build 0)  -->
<svg version="1.1" id="Layer_1" xmlns="http://www.w3.org/2000/svg" xmlns:xlink="http://www.w3.org/1999/xlink" x="0px" y="0px"
	 viewBox="0 0 63.5 77.3" style="enable-background:new 0 0 63.5 77.3;" xml:space="preserve">
<style type="text/css">
	.st0{fill:#154283;}
	.st1{fill:#FFFFFF;}
	.st2{fill:#FA636B;}
	.st3{fill:#5BC4FC;}
</style>
<g>
	<g>
		<g>
			<g>
				<path class="st0" d="M55.4,77.3c-0.4,0-0.8-0.3-0.8-0.7C53.1,68.8,50,41.3,50,41.1c0,0,0-0.1,0-0.1c0-0.1,0.1-6,0.3-11.9
					c0.3-10,0.4-11.9,0.6-12.4c0.3-1,1-10.2,1.5-15.9c0-0.5,0.5-0.8,0.9-0.8c0.5,0,0.8,0.5,0.8,0.9c0,0-0.3,4-0.7,7.9
					c-0.6,6.5-0.8,8-1,8.4c-0.2,1.4-0.6,15.1-0.7,23.6c0.2,1.4,3.1,27.7,4.6,35.3c0.1,0.5-0.2,0.9-0.7,1
					C55.5,77.3,55.5,77.3,55.4,77.3z"/>
			</g>
			<g>
				<path class="st1" d="M55.1,13.6c0,0-19.5,25.1-24.9,31c-5.4,6,3.8,22,22,18.7c0,0,7.1-1.4,10.4-7.6"/>
				<path class="st0" d="M47.4,64.7c-9.1,0-15.2-4.9-17.9-9.7c-2.3-4.1-2.3-8.4,0.1-10.9c5.3-5.9,24.6-30.7,24.8-31
					c0.3-0.4,0.8-0.4,1.2-0.2c0.4,0.3,0.4,0.8,0.2,1.2c-0.2,0.3-19.6,25.2-24.9,31.1c-1.8,2-1.7,5.5,0.2,8.9c2.4,4.3,8,8.8,16.4,8.8
					c1.5,0,3-0.1,4.7-0.4c0.1,0,6.7-1.4,9.8-7.1c0.2-0.4,0.8-0.6,1.2-0.4c0.4,0.2,0.6,0.8,0.4,1.2c-3.5,6.4-10.7,7.9-11,8
					C50.7,64.5,49,64.7,47.4,64.7z"/>
			</g>
		</g>
		<g>
			<g>
				<g>
					<path class="st0" d="M16.2,13.5c-0.2,0-0.4-0.1-0.5-0.2c-0.5-0.5-5.3-4.7-6.1-5.7c-0.4-0.2-2.2,0-3.8,0.5C5.4,8.3,5,8,4.8,7.6
						C4.7,7.2,4.9,6.8,5.3,6.7c1.6-0.5,4.5-1.1,5.4,0c0.5,0.6,3.8,3.6,6,5.5c0.3,0.3,0.3,0.8,0.1,1.1C16.6,13.4,16.4,13.5,16.2,13.5
						z"/>
				</g>
				<g>
					<path class="st0" d="M9.9,7.6c-0.2,0-0.4-0.1-0.5-0.2C8.9,7,8.5,5.8,9.8,2.5c0.2-0.4,0.6-0.6,1-0.4c0.4,0.2,0.6,0.6,0.4,1
						c-0.5,1.3-0.9,2.9-0.7,3.3c0.3,0.3,0.3,0.8,0,1C10.3,7.5,10.1,7.6,9.9,7.6z M10.5,6.4L10.5,6.4L10.5,6.4z"/>
				</g>
			</g>
			<g>
				<g>
					<path class="st0" d="M23.1,11.4c-0.3,0-0.6-0.2-0.7-0.4c-0.2-0.6-2.4-5.4-2.7-6.5c-0.3-0.3-1.7-0.7-3.1-0.9
						c-0.4-0.1-0.7-0.4-0.6-0.9C16,2.3,16.4,2,16.8,2c1.8,0.2,4,0.8,4.3,1.9c0.2,0.6,1.7,4.1,2.7,6.4c0.2,0.4,0,0.8-0.4,1
						C23.3,11.4,23.2,11.4,23.1,11.4z M19.7,4.4L19.7,4.4L19.7,4.4z"/>
				</g>
				<g>
					<path class="st0" d="M20.2,4.6c-0.3,0-0.6-0.2-0.7-0.5c-0.4-1.1,0.9-2.6,2-3.7c0.3-0.3,0.8-0.3,1.1,0c0.3,0.3,0.3,0.8,0,1.1
						C21.8,2.3,21,3.3,21,3.6c0.1,0.4-0.1,0.8-0.5,0.9C20.4,4.6,20.3,4.6,20.2,4.6z M21,3.7C21,3.7,21,3.7,21,3.7L21,3.7z M20.9,3.6
						C20.9,3.6,20.9,3.6,20.9,3.6C20.9,3.6,20.9,3.6,20.9,3.6z"/>
				</g>
			</g>
			<g>
				<g>
					<path class="st0" d="M35.3,12.2c-0.3,0-0.6-0.2-0.7-0.5c-0.1-0.4,0.1-0.8,0.5-1c0.6-0.2,5.6-2,6.7-2.2c0.3-0.3,0.8-1.7,1.1-3
						c0.1-0.4,0.5-0.7,0.9-0.6c0.4,0.1,0.7,0.5,0.6,0.9c-0.4,1.8-1.1,3.9-2.3,4.1c-0.6,0.1-4.3,1.4-6.5,2.2
						C35.4,12.2,35.4,12.2,35.3,12.2z"/>
				</g>
				<g>
					<path class="st0" d="M45,12c-0.2,0-0.4-0.1-0.6-0.3c-0.7-0.9-1.7-1.7-2-1.8C42,10,41.6,9.7,41.5,9.4C41.4,9,41.6,8.5,42,8.4
						c0.6-0.2,1.7,0.1,3.6,2.3c0.3,0.3,0.2,0.8-0.1,1.1C45.4,11.9,45.2,12,45,12z M42.4,9.9L42.4,9.9L42.4,9.9z"/>
				</g>
			</g>
			<g>
				<g>
					<path class="st0" d="M37.3,22c-0.4,0-0.7-0.1-1-0.3c-0.5-0.4-3.8-2.3-5.9-3.5c-0.4-0.2-0.5-0.7-0.3-1c0.2-0.4,0.7-0.5,1-0.3
						c0.5,0.3,5.2,2.9,6.1,3.6c0.4,0.1,1.8-0.4,3-1.1c0.4-0.2,0.8-0.1,1,0.3c0.2,0.4,0.1,0.8-0.3,1C39.8,21.4,38.4,22,37.3,22z
						 M37.2,20.5L37.2,20.5z"/>
				</g>
				<g>
					<path class="st0" d="M37.4,25.6c0,0-0.1,0-0.1,0c-0.4-0.1-0.7-0.5-0.6-0.9c0.2-1.1,0.2-2.4,0-2.7c-0.3-0.2-0.4-0.7-0.2-1
						c0.2-0.4,0.7-0.5,1-0.2c0.9,0.6,0.8,2.6,0.6,4.2C38,25.3,37.7,25.6,37.4,25.6z M36.7,22C36.7,22,36.7,22,36.7,22
						C36.7,22,36.7,22,36.7,22z"/>
				</g>
			</g>
			<g>
				<g>
					<path class="st0" d="M17.9,35.9c-0.2,0-0.3,0-0.4-0.1c-1.5-1-3.2-2.5-2.9-3.7c0.1-0.6,0.4-4.5,0.6-6.9c0-0.4,0.4-0.7,0.8-0.7
						c0.4,0,0.7,0.4,0.7,0.8c0,0.6-0.4,5.9-0.6,7c0.1,0.4,1.2,1.4,2.3,2.2c0.3,0.2,0.4,0.7,0.2,1.1C18.4,35.8,18.1,35.9,17.9,35.9z"
						/>
				</g>
				<g>
					<path class="st0" d="M12.3,35.1c-0.3,0-0.6-0.2-0.7-0.5c-0.1-0.4,0.1-0.8,0.5-0.9c1.1-0.3,2.3-0.9,2.5-1.2
						c0.1-0.4,0.4-0.6,0.8-0.6c0.4,0.1,0.7,0.4,0.7,0.8c-0.1,1.1-2,1.9-3.5,2.4C12.4,35.1,12.3,35.1,12.3,35.1z M14.5,32.5
						C14.5,32.5,14.5,32.5,14.5,32.5C14.5,32.5,14.5,32.5,14.5,32.5z"/>
				</g>
			</g>
			<g>
				<g>
					<path class="st0" d="M30,12.3C30,12.3,30,12.3,30,12.3c-0.4,0-0.8-0.3-0.8-0.8c0-0.6,0-5.9,0.2-7.1c-0.1-0.4-1.3-1.3-2.4-2.1
						c-0.4-0.2-0.5-0.7-0.2-1c0.2-0.4,0.7-0.5,1-0.2c1.5,1,3.3,2.3,3.1,3.5c-0.1,0.7-0.2,4.5-0.2,6.9C30.8,11.9,30.4,12.3,30,12.3z
						 M29.5,4.5L29.5,4.5L29.5,4.5z"/>
				</g>
				<g>
					<path class="st0" d="M30.2,4.9C30.2,4.9,30.2,4.9,30.2,4.9c-0.5,0-0.8-0.4-0.8-0.8c0-0.6,0.7-1.6,3.4-2.6
						c0.4-0.1,0.8,0.1,1,0.5c0.1,0.4-0.1,0.8-0.5,1c-1.1,0.4-2.2,1-2.4,1.3C30.9,4.7,30.6,4.9,30.2,4.9z M31,4.3
						C31,4.3,31,4.3,31,4.3L31,4.3z M31,4.2C31,4.2,31,4.2,31,4.2C31,4.2,31,4.2,31,4.2z"/>
				</g>
			</g>
			<g>
				<g>
					<path class="st0" d="M28.7,36c-0.1,0-0.2,0-0.2,0c-1.7-0.5-3.8-1.4-3.9-2.6c-0.1-0.7-1-4.4-1.6-6.7c-0.1-0.4,0.1-0.8,0.5-0.9
						c0.4-0.1,0.8,0.1,0.9,0.5c0.2,0.6,1.5,5.8,1.6,6.9c0.2,0.3,1.6,1,2.9,1.4c0.4,0.1,0.6,0.5,0.5,0.9C29.4,35.8,29.1,36,28.7,36z"
						/>
				</g>
				<g>
					<path class="st0" d="M23.1,36.9c-0.2,0-0.5-0.1-0.6-0.3c-0.2-0.3-0.2-0.8,0.2-1.1c0.9-0.7,1.9-1.5,2-1.9c0-0.4,0.2-0.7,0.6-0.8
						c0.4-0.1,0.8,0.2,0.9,0.6c0.1,0.6-0.2,1.7-2.6,3.3C23.4,36.9,23.3,36.9,23.1,36.9z M24.7,33.7C24.7,33.7,24.7,33.7,24.7,33.7
						C24.7,33.7,24.7,33.7,24.7,33.7z M24.7,33.6L24.7,33.6L24.7,33.6z"/>
				</g>
			</g>
			<g>
				<g>
					<path class="st0" d="M2.8,31.6c0,0-0.1,0-0.1,0c-0.4-0.1-0.7-0.5-0.6-0.9c0.3-1.7,1-4.5,2.3-4.9c0.8-0.2,5-1.9,7.6-3
						c0.4-0.2,0.8,0,1,0.4c0.2,0.4,0,0.8-0.4,1c-0.7,0.3-6.6,2.7-7.8,3c-0.4,0.3-0.9,2-1.2,3.7C3.4,31.4,3.1,31.6,2.8,31.6z"/>
				</g>
				<g>
					<path class="st0" d="M4,27.5c-0.7,0-1.9-0.5-3.8-2.5c-0.3-0.3-0.3-0.8,0-1.1c0.3-0.3,0.8-0.3,1.1,0c1,1.1,2.2,2,2.6,2.1
						c0.4-0.1,0.8,0.1,0.9,0.5c0.1,0.4-0.1,0.8-0.5,1C4.3,27.5,4.1,27.5,4,27.5z"/>
				</g>
			</g>
			<g>
				<path class="st1" d="M34.8,11.7c0.3-0.5,0.4-1.1,0.4-1.7c0-2.1-1.7-3.7-3.7-3.7c-0.6,0-1.1,0.1-1.6,0.4c-0.9-0.8-2-1.3-3.3-1.3
					c-2,0-3.7,1.2-4.5,2.9c-0.7-0.6-1.7-1-2.7-1c-1.8,0-3.3,1.1-3.9,2.7c-0.2,0.5-0.3,1-0.3,1.5c0,0.2,0,0.3,0,0.5
					c-2.1,0.2-3.7,2-3.7,4.2c0,0.2,0,0.5,0.1,0.7c-1.7,0.6-2.8,2.1-2.8,4c0,1.3,0.6,2.5,1.5,3.2c-0.1,0.4-0.1,0.8-0.1,1.2
					c0,2.7,2.2,4.9,4.9,4.9c2,0,3.7-1.2,4.4-2.8c0.6,0.3,1.3,0.5,2.1,0.5c0.9,0,1.6-0.2,2.3-0.7c0.7,0.4,1.5,0.7,2.3,0.7
					c2.4,0,4.4-2,4.4-4.4c0-0.1,0-0.2,0-0.3c1.6-0.4,2.8-1.9,2.8-3.6c0-0.2,0-0.3,0-0.5c0,0,0,0,0,0c2.1,0,3.7-1.7,3.7-3.7
					C37,13.6,36.1,12.2,34.8,11.7z"/>
				<path class="st0" d="M15,30.7c-3.1,0-5.6-2.5-5.6-5.6c0-0.3,0-0.6,0.1-0.9c-0.9-0.9-1.5-2.2-1.5-3.5c0-1.9,1.1-3.6,2.8-4.5
					c0-0.1,0-0.1,0-0.2c0-2.3,1.6-4.2,3.7-4.8c0-0.6,0.1-1.1,0.3-1.6c0.7-1.9,2.6-3.2,4.6-3.2c0.9,0,1.7,0.2,2.5,0.7
					c1-1.6,2.8-2.5,4.7-2.5C27.8,4.6,29,5,30,5.7c0.5-0.2,0.9-0.2,1.4-0.2c2.5,0,4.5,2,4.5,4.5c0,0.5-0.1,0.9-0.2,1.3
					c1.3,0.8,2.1,2.2,2.1,3.8c0,2.2-1.6,4.1-3.7,4.4c-0.1,1.7-1.2,3.3-2.8,3.9c-0.1,2.8-2.4,5-5.2,5c-0.8,0-1.6-0.2-2.3-0.6
					c-0.7,0.4-1.5,0.6-2.3,0.6c-0.6,0-1.2-0.1-1.7-0.3C18.7,29.7,16.9,30.7,15,30.7z M19.4,8c-1.4,0-2.7,0.9-3.2,2.2
					c-0.1,0.4-0.2,0.8-0.2,1.2c0,0.1,0,0.3,0,0.4c0,0.2,0,0.4-0.2,0.6c-0.1,0.2-0.3,0.3-0.5,0.3c-1.7,0.2-3.1,1.6-3.1,3.4
					c0,0.2,0,0.4,0,0.6c0.1,0.4-0.2,0.7-0.5,0.8c-1.4,0.5-2.3,1.8-2.3,3.2c0,1,0.5,2,1.3,2.7c0.2,0.2,0.3,0.5,0.3,0.8
					c-0.1,0.3-0.1,0.7-0.1,1c0,2.3,1.8,4.1,4.1,4.1c1.6,0,3.1-0.9,3.7-2.4c0.1-0.2,0.2-0.3,0.4-0.4c0.2-0.1,0.4,0,0.6,0
					c0.5,0.3,1.1,0.4,1.7,0.4c0.7,0,1.3-0.2,1.9-0.5c0.2-0.2,0.6-0.2,0.8,0c0.6,0.4,1.2,0.5,1.9,0.5c2,0,3.7-1.6,3.7-3.7
					c0-0.1,0-0.2,0-0.3c0-0.4,0.2-0.7,0.6-0.8c1.3-0.3,2.2-1.5,2.2-2.9c0-0.1,0-0.2,0-0.4c0-0.2,0-0.4,0.2-0.6
					c0.1-0.2,0.4-0.3,0.6-0.3c0,0,0,0,0,0c1.6,0,2.9-1.3,2.9-3c0-1.2-0.7-2.3-1.8-2.7c-0.2-0.1-0.3-0.2-0.4-0.4
					c-0.1-0.2-0.1-0.4,0-0.6c0.2-0.4,0.3-0.9,0.3-1.3c0-1.6-1.3-3-3-3c-0.4,0-0.9,0.1-1.3,0.3c-0.3,0.1-0.6,0.1-0.8-0.1
					c-0.8-0.7-1.8-1.1-2.8-1.1c-1.6,0-3.1,1-3.8,2.4c-0.1,0.2-0.3,0.4-0.5,0.4C22,9,21.8,9,21.6,8.8C21,8.3,20.2,8,19.4,8z"/>
			</g>
			<g>
				<path class="st0" d="M11.5,17.4c-0.1,0-0.2,0-0.3-0.1l-5.2-2c-0.4-0.2-0.6-0.6-0.4-1c0.2-0.4,0.6-0.6,1-0.4l5.2,2
					c0.4,0.2,0.6,0.6,0.4,1C12.1,17.2,11.8,17.4,11.5,17.4z"/>
			</g>
			<g>
				<circle class="st2" cx="25.7" cy="21.8" r="2.6"/>
			</g>
			<g>
				<circle class="st2" cx="30.2" cy="14.6" r="2.6"/>
			</g>
			<g>
				<circle class="st2" cx="17.7" cy="21.4" r="2.6"/>
			</g>
			<g>
				<circle class="st2" cx="29.5" cy="12" r="1.9"/>
			</g>
			<g>
				<circle class="st2" cx="15" cy="24.4" r="2.6"/>
			</g>
			<g>
				<circle class="st2" cx="14.4" cy="21" r="1.9"/>
			</g>
			<g>
				<circle class="st2" cx="22.9" cy="13.3" r="1.9"/>
			</g>
			<g>
				<circle class="st2" cx="20.2" cy="12.8" r="2.7"/>
			</g>
			<g>
				<circle class="st2" cx="20.3" cy="15.3" r="2.4"/>
			</g>
			<g>
				<path class="st2" d="M20.3,17.7c1.4,0,2.4-1.1,2.4-2.4c0-1.4-1.1-2.4-2.4-2.4"/>
			</g>
			<g>
				<circle class="st2" cx="25" cy="20.1" r="1.9"/>
			</g>
			<g>
				<path class="st2" d="M25.3,21.7c1-0.3,1.5-1.4,1.2-2.4"/>
			</g>
		</g>
		<g>
			<circle class="st2" cx="15.2" cy="16" r="0.6"/>
		</g>
		<g>
			<ellipse transform="matrix(0.6075 -0.7944 0.7944 0.6075 3.3583 24.8068)" class="st2" cx="26.8" cy="9" rx="0.8" ry="0.8"/>
		</g>
		<g>
			<ellipse transform="matrix(0.6075 -0.7944 0.7944 0.6075 -5.0112 30.055)" class="st2" cx="27.9" cy="20.1" rx="0.8" ry="0.8"/>
		</g>
		<g>
			<path class="st3" d="M46.4,60.8c-0.4,0-0.7-0.3-0.7-0.7V47.4c0-0.4,0.3-0.7,0.7-0.7s0.7,0.3,0.7,0.7v12.7
				C47.1,60.5,46.8,60.8,46.4,60.8z"/>
		</g>
		<g>
			<path class="st3" d="M50.2,60.8c-0.4,0-0.7-0.3-0.7-0.7V43.6c0-0.4,0.3-0.7,0.7-0.7s0.7,0.3,0.7,0.7v16.5
				C50.9,60.5,50.6,60.8,50.2,60.8z"/>
		</g>
		<g>
			<path class="st3" d="M54,59.5c-0.4,0-0.7-0.3-0.7-0.7V42.6c0-0.4,0.3-0.7,0.7-0.7s0.7,0.3,0.7,0.7v16.1
				C54.7,59.2,54.4,59.5,54,59.5z"/>
		</g>
		<g>
			<path class="st3" d="M57.8,57c-0.4,0-0.7-0.3-0.7-0.7V43.6c0-0.4,0.3-0.7,0.7-0.7c0.4,0,0.7,0.3,0.7,0.7v12.7
				C58.5,56.7,58.2,57,57.8,57z"/>
		</g>
		<g>
			<path class="st3" d="M61.6,51.7c-0.4,0-0.7-0.3-0.7-0.7v-3.6c0-0.4,0.3-0.7,0.7-0.7s0.7,0.3,0.7,0.7V51
				C62.3,51.4,62,51.7,61.6,51.7z"/>
		</g>
		<g>
			<path class="st3" d="M42.7,58.2c-0.4,0-0.7-0.3-0.7-0.7v-5.1c0-0.4,0.3-0.7,0.7-0.7s0.7,0.3,0.7,0.7v5.1
				C43.4,57.9,43.1,58.2,42.7,58.2z"/>
		</g>
	</g>
</g>
</svg>
