<?xml version="1.0" encoding="utf-8"?>
<!-- Generator: Adobe Illustrator 21.0.0, SVG Export Plug-In . SVG Version: 6.00 Build 0)  -->
<svg version="1.1" id="Layer_1" xmlns="http://www.w3.org/2000/svg" xmlns:xlink="http://www.w3.org/1999/xlink" x="0px" y="0px"
	 viewBox="0 0 78 76.2" style="enable-background:new 0 0 78 76.2;" xml:space="preserve">
<style type="text/css">
	.st0{fill:#5BC4FC;}
	.st1{fill:#FFFFFF;}
	.st2{fill:#154283;}
	.st3{fill:#FA636B;}
	.st4{fill:#FFFFFF;stroke:#154283;stroke-width:11;stroke-linecap:round;stroke-linejoin:round;stroke-miterlimit:10;}
</style>
<g>
	<g>
		<g>
			<path class="st0" d="M56.5,26.2H26.5c-0.5,0-0.8-0.4-0.8-0.8s0.4-0.8,0.8-0.8h30.1c0.5,0,0.8,0.4,0.8,0.8S57,26.2,56.5,26.2z"/>
		</g>
		<g>
			<path class="st0" d="M53.2,32.3H21.9c-0.5,0-0.8-0.4-0.8-0.8c0-0.5,0.4-0.8,0.8-0.8h31.3c0.5,0,0.8,0.4,0.8,0.8
				C54.1,31.9,53.7,32.3,53.2,32.3z"/>
		</g>
		<g>
			<path class="st0" d="M57.4,38.3H21.9c-0.5,0-0.8-0.4-0.8-0.8c0-0.5,0.4-0.8,0.8-0.8h35.5c0.5,0,0.8,0.4,0.8,0.8
				C58.3,38,57.9,38.3,57.4,38.3z"/>
		</g>
		<g>
			<path class="st0" d="M30.5,44.4H17.1c-0.5,0-0.8-0.4-0.8-0.8s0.4-0.8,0.8-0.8h13.5c0.5,0,0.8,0.4,0.8,0.8S31,44.4,30.5,44.4z"/>
		</g>
		<g>
			<path class="st0" d="M31.9,50.4h-9.5c-0.5,0-0.8-0.4-0.8-0.8c0-0.5,0.4-0.8,0.8-0.8h9.5c0.5,0,0.8,0.4,0.8,0.8
				C32.7,50.1,32.4,50.4,31.9,50.4z"/>
		</g>
		<g>
			<path class="st1" d="M12.2,53.3L12.2,53.3c0,2.3,1.8,4.1,4,4.1h6c4.5,0,5.1,5.8,11.8,5.8"/>
			<path class="st2" d="M34,64c-4,0-6.1-2-7.8-3.5c-1.3-1.2-2.4-2.2-4.1-2.2h-6c-2.7,0-4.8-2.2-4.8-4.9c0-0.5,0.4-0.8,0.8-0.8
				c0.5,0,0.8,0.4,0.8,0.8c0,1.8,1.4,3.2,3.1,3.2h6c2.4,0,3.8,1.4,5.2,2.7c1.6,1.5,3.3,3.1,6.6,3.1c0.5,0,0.8,0.4,0.8,0.8
				C34.8,63.6,34.5,64,34,64z"/>
		</g>
		<g>
			<circle class="st3" cx="22.4" cy="12" r="3.7"/>
		</g>
		<g>
			<ellipse transform="matrix(0.7071 -0.7071 0.7071 0.7071 -1.741 21.7034)" class="st3" cx="25.3" cy="13" rx="1.9" ry="1.9"/>
		</g>
		<g>
			<circle class="st3" cx="17.6" cy="6" r="1.4"/>
		</g>
		<g>
			<path class="st4" d="M13.8,53.4"/>
		</g>
		<g>
			<path class="st2" d="M47.1,76.2c-0.3,0-0.6-0.1-0.7-0.4c-0.2-0.4-0.1-0.9,0.3-1.2c1.5-0.9,2.8-4.2,2.8-6.4c0-0.5-0.1-1-0.2-1.5
				c-0.1-0.3,0-0.6,0.2-0.8c1.2-1.1,1.8-2.6,1.8-4.2c0-1.3-0.4-2.5-1.2-3.5c-0.2-0.2-0.2-0.6-0.1-0.9c0.1-0.3,0.4-0.5,0.7-0.5
				c0.3,0,0.6-0.1,0.9-0.1c0.3-0.1,0.6,0,0.8,0.3c1.1,1.2,2.6,1.9,4.2,1.9c3.2,0,5.7-2.6,5.7-5.7c0-0.2,0-0.4,0-0.6
				c0-0.4,0.2-0.7,0.5-0.8c0.7-0.3,1.4-0.9,1.9-1.5c0.2-0.3,0.6-0.4,0.9-0.3c0.6,0.2,1.2,0.3,1.9,0.3c3.2,0,5.7-2.6,5.7-5.7
				c0-1.1-0.3-2.2-0.9-3.1c-0.1-0.2-0.2-0.4-0.1-0.7c0.1-0.2,0.2-0.4,0.4-0.5c1.9-1.1,3.1-3.1,3.1-5.3c0-0.9-0.2-1.8-0.6-2.7
				c-0.1-0.3-0.1-0.6,0.1-0.9c0.8-1,1.3-2.3,1.3-3.6c0-2.3-1.4-4.4-3.5-5.3c-0.3-0.1-0.5-0.4-0.5-0.7c-0.1-0.7-0.3-1.4-0.6-2.1
				c-0.2-0.4,0-0.8,0.3-1c2.2-1.6,3.6-4.3,3.6-7.1c0-4.8-3.9-8.8-8.8-8.8c-2.5,0-4.9,1.1-6.6,3c-0.3,0.3-0.7,0.4-1,0.2
				c-0.8-0.5-1.8-0.7-2.8-0.7c-1.4,0-2.7,0.5-3.8,1.4c-0.2,0.2-0.5,0.2-0.8,0.2c-0.3-0.1-0.5-0.3-0.6-0.5c-1-2.8-3.8-4.7-6.8-4.7
				c-3.5,0-6.6,2.6-7.2,6.1c0,0.3-0.3,0.6-0.6,0.7c-0.2,0-0.3,0.1-0.5,0.2c-0.2,0.1-0.5,0.1-0.7,0c-0.2-0.1-0.4-0.3-0.4-0.6
				c-0.7-3.1-3.4-5.3-6.6-5.3c-2.4,0-4.6,1.3-5.8,3.3c-0.1,0.3-0.4,0.4-0.7,0.4c-0.3,0-0.6-0.1-0.7-0.4c-1.3-2.1-3.5-3.3-6-3.3
				c-3.9,0-7.1,3.2-7.1,7.1c0,1.6,0.5,3.1,1.5,4.4c0.2,0.3,0.2,0.6,0.1,0.9c-0.2,0.3-0.5,0.5-0.8,0.5c-0.1,0-0.2,0-0.3,0
				c-3.2,0-5.7,2.6-5.7,5.7c0,1.6,0.7,3.2,1.9,4.3c0.2,0.2,0.3,0.4,0.3,0.6c0,0.2-0.1,0.5-0.3,0.6c-1.2,1.1-1.9,2.6-1.9,4.3
				c0,2,1.1,3.9,2.9,4.9c0.2,0.1,0.3,0.3,0.4,0.5c0.1,0.2,0,0.5-0.1,0.6c-0.6,0.9-0.9,2-0.9,3C5.5,41.6,6,43,7,44
				c0.2,0.2,0.3,0.5,0.2,0.8c-0.1,0.3-0.3,0.5-0.6,0.6C4.4,46.1,3,48.2,3,50.5c0,3,2.4,5.4,5.4,5.4c1.3,0,2.6-0.5,3.5-1.3
				c0.3-0.3,0.9-0.3,1.2,0.1c0.3,0.3,0.3,0.9-0.1,1.2c-1.3,1.1-2.9,1.8-4.7,1.8c-3.9,0-7-3.2-7-7c0-2.7,1.5-5,3.8-6.2
				c-0.8-1.2-1.2-2.6-1.2-4.1c0-1.1,0.2-2.2,0.7-3.2c-1.9-1.4-3-3.6-3-6c0-1.8,0.7-3.5,1.8-4.9c-1.2-1.3-1.8-3.1-1.8-4.9
				c0-3.7,2.7-6.7,6.2-7.3c-0.7-1.3-1-2.7-1-4.1c0-4.8,3.9-8.8,8.8-8.8c2.6,0,5,1.1,6.7,3.1c1.6-1.9,4-3.1,6.5-3.1
				c3.3,0,6.2,1.9,7.6,4.8c0.5-1.4,1.4-2.7,2.5-3.7C40.4,0.8,42.4,0,44.6,0c3.3,0,6.4,1.9,7.9,4.8c1.2-0.8,2.6-1.2,4-1.2
				c1,0,2,0.2,3,0.6c2-2,4.6-3.1,7.4-3.1c5.8,0,10.4,4.7,10.4,10.4c0,3.1-1.4,6-3.8,8c0.2,0.5,0.3,1,0.4,1.5
				c2.5,1.2,4.1,3.8,4.1,6.6c0,1.5-0.5,3-1.3,4.2c0.4,0.9,0.6,1.9,0.6,2.9c0,2.5-1.2,4.9-3.2,6.3c0.5,1,0.8,2.1,0.8,3.3
				c0,4.1-3.3,7.4-7.4,7.4c-0.6,0-1.3-0.1-1.9-0.2c-0.5,0.5-1,0.9-1.6,1.2c0,0.1,0,0.1,0,0.2c0,4.1-3.3,7.4-7.4,7.4
				c-1.5,0-2.9-0.4-4.1-1.3c0.3,0.8,0.4,1.6,0.4,2.4c0,1.9-0.7,3.7-2,5c0.1,0.5,0.2,1,0.2,1.5c0,2.4-1.2,6.5-3.6,7.9
				C47.4,76.2,47.2,76.2,47.1,76.2z"/>
		</g>
		<g>
			<path class="st2" d="M40.2,76.2c-0.2,0-0.3,0-0.4-0.1c-1.7-1-2.8-4.2-3.2-5.6c-2.1-1.4-3.4-3.7-3.4-6.2c0-1.5,0.5-3,1.3-4.2
				c-2.3-1.8-3.6-4.5-3.6-7.4c0-5.2,4.2-9.4,9.4-9.4c2,0,4,0.7,5.6,1.9c1.3-0.9,2.8-1.4,4.3-1.4c1,0,2.1,0.2,3,0.6
				c0.7-2.3,2.5-4,4.7-4.8c-1-1.3-1.5-2.9-1.5-4.6c0-2,0.7-3.9,2.1-5.3c-1.9-1.8-3-4.2-3-6.8c0-1.6,0.4-3.1,1.1-4.4c0,0-0.1,0-0.1,0
				c-2.3,0-4.5-1.1-5.9-2.9c-1.6,1.4-3.6,2.3-5.8,2.3c-1.3,2.2-3.7,3.5-6.3,3.5c-2.8,0-5.4-1.6-6.6-4.1c-1,0.4-2.1,0.6-3.2,0.6
				c-0.2,0-0.4,0-0.6,0c-0.6,2.9-2.8,5.2-5.6,5.8c0.6,1.2,1,2.6,1,4c0,3.9-2.6,7.2-6.2,8.3c0.9,1.2,1.4,2.7,1.4,4.3
				c0,1.4-0.4,2.7-1.1,3.9c1.3,1.1,2.1,2.7,2.1,4.4c0,0.5-0.4,0.8-0.8,0.8c-0.5,0-0.8-0.4-0.8-0.8c0-1.4-0.8-2.8-2-3.5
				c-0.2-0.1-0.4-0.3-0.4-0.6c0-0.2,0-0.5,0.2-0.7c0.8-1,1.2-2.2,1.2-3.5c0-1.6-0.6-3.1-1.8-4.2c-0.2-0.2-0.3-0.6-0.2-0.9
				c0.1-0.3,0.4-0.5,0.7-0.6c3.5-0.4,6.1-3.4,6.1-7c0-1.5-0.5-2.9-1.4-4.2c-0.2-0.3-0.2-0.6-0.1-0.9c0.1-0.3,0.4-0.5,0.7-0.5
				c2.9-0.1,5.3-2.4,5.5-5.3c0-0.2,0.1-0.5,0.3-0.6c0.2-0.1,0.4-0.2,0.7-0.2c0.4,0.1,0.8,0.1,1.2,0.1c1.1,0,2.2-0.3,3.2-0.8
				c0.2-0.1,0.5-0.1,0.7,0c0.2,0.1,0.4,0.3,0.5,0.5c0.8,2.3,3,3.9,5.4,3.9c2.1,0,4.1-1.2,5.1-3.1c0.2-0.3,0.5-0.5,0.8-0.4l0,0
				c0.1,0,0.2,0,0.2,0c2.1,0,4.1-0.9,5.5-2.5c0.2-0.2,0.5-0.3,0.7-0.3c0.3,0,0.5,0.2,0.6,0.4c1,1.8,2.9,3,5,3c0.6,0,1.1-0.1,1.7-0.3
				c0.4-0.1,0.7,0,1,0.3c0.2,0.3,0.2,0.7-0.1,1c-1.2,1.4-1.9,3.2-1.9,5c0,2.4,1.1,4.6,3.1,6.1c0.2,0.2,0.3,0.4,0.3,0.6
				c0,0.3-0.1,0.5-0.3,0.7c-1.4,1.2-2.2,2.9-2.2,4.7c0,1.7,0.7,3.3,1.9,4.5c0.2,0.2,0.3,0.6,0.2,0.9c-0.1,0.3-0.4,0.5-0.7,0.6
				c-2.4,0.3-4.3,2.1-4.8,4.4c-0.1,0.3-0.2,0.5-0.5,0.6C54,46,53.9,46,53.7,46.1c-0.3,0.1-0.6,0.1-0.8,0c-0.8-0.5-1.8-0.7-2.7-0.7
				c-1.4,0-2.7,0.5-3.8,1.4c-0.3,0.3-0.8,0.3-1.1,0c-1.4-1.2-3.2-1.9-5-1.9c-4.2,0-7.7,3.5-7.7,7.7c0,2.6,1.3,5.1,3.6,6.5
				c0.2,0.1,0.3,0.3,0.4,0.6c0,0.2,0,0.5-0.2,0.7c-0.9,1-1.5,2.4-1.5,3.8c0,2,1.1,3.9,2.9,4.9c0.2,0.1,0.3,0.3,0.4,0.5
				c0.5,2,1.5,4.3,2.5,5c0.4,0.2,0.5,0.8,0.3,1.2C40.8,76.1,40.5,76.2,40.2,76.2z"/>
		</g>
	</g>
	<g>
		<path class="st1" d="M51,55.7c-0.4-1.1-1.1-1.9-2-2.4c0.2-0.7,0.3-1.5,0-2.3c-0.4-1.2-1.4-2.1-2.6-2.4c0-0.4-0.1-0.8-0.2-1.2
			c-0.5-1.4-1.7-2.3-3-2.5c-0.5-1.1-1.6-1.9-2.9-1.9c-1,0-1.9,0.5-2.5,1.2c-0.4,0-0.9,0-1.3,0.2c-0.9,0.3-1.7,1-2.1,1.8c0,0,0,0,0,0
			c-1.8,0-3.2,1.4-3.2,3.2c0,0.5,0.1,0.9,0.3,1.3c-1.4,0.3-2.4,1.6-2.4,3.1c0,1.8,1.4,3.2,3.2,3.2c0,0,0,0,0,0
			c0,0.3,0.1,0.6,0.2,0.9c0.3,1,1,1.7,1.9,2.2c-0.5,0.8-0.6,1.9-0.3,2.9c0.6,1.9,2.7,2.9,4.6,2.3c0.6-0.2,1.1-0.5,1.5-0.9
			c0.9,0.5,1.9,0.6,2.9,0.3c1.6-0.5,2.6-2.1,2.5-3.7c0.9,0.3,1.8,0.4,2.8,0.1C50.5,60.2,51.7,57.9,51,55.7z"/>
		<path class="st2" d="M37.5,66.3c-0.7,0-1.4-0.2-2-0.5c-1.1-0.5-1.9-1.5-2.2-2.6c-0.3-0.9-0.3-1.9,0-2.8c-0.8-0.5-1.4-1.3-1.7-2.2
			c0-0.1-0.1-0.3-0.1-0.4c-1.9-0.3-3.3-2-3.3-4c0-1.5,0.9-2.9,2.2-3.6c-0.1-0.3-0.1-0.5-0.1-0.8c0-2.1,1.6-3.8,3.6-4
			c0.6-0.8,1.4-1.4,2.3-1.7c0.4-0.1,0.8-0.2,1.1-0.2c0.8-0.8,1.8-1.2,2.9-1.2c1.5,0,2.8,0.8,3.5,2c1.5,0.3,2.8,1.5,3.3,3
			c0.1,0.3,0.1,0.5,0.2,0.8c1.2,0.5,2.2,1.5,2.6,2.7c0.2,0.7,0.3,1.4,0.2,2.2c0.9,0.6,1.5,1.5,1.9,2.5l0,0c0.4,1.3,0.3,2.6-0.3,3.8
			c-0.6,1.2-1.6,2.1-2.9,2.5c-0.7,0.2-1.5,0.3-2.2,0.2c-0.3,1.6-1.4,2.9-3,3.4c-1,0.3-2.1,0.3-3-0.1c-0.4,0.3-0.9,0.6-1.4,0.7
			C38.5,66.2,38,66.3,37.5,66.3z M32.2,56.2c0.4,0,0.8,0.3,0.8,0.8c0,0.2,0.1,0.5,0.1,0.7c0.2,0.7,0.8,1.3,1.5,1.7
			c0.2,0.1,0.4,0.3,0.4,0.5c0.1,0.2,0.1,0.5-0.1,0.7c-0.4,0.7-0.4,1.5-0.2,2.2c0.2,0.7,0.7,1.3,1.4,1.6c0.7,0.3,1.4,0.4,2.1,0.2
			c0.4-0.1,0.8-0.4,1.1-0.7c0.3-0.3,0.7-0.3,1-0.2c0.7,0.4,1.5,0.5,2.2,0.2c1.2-0.4,2-1.6,1.9-2.8c0-0.3,0.1-0.6,0.3-0.7
			c0.2-0.2,0.5-0.2,0.8-0.1c0.7,0.3,1.5,0.3,2.2,0c0.8-0.3,1.5-0.9,1.9-1.7c0.4-0.8,0.5-1.7,0.2-2.5l0,0c-0.3-0.8-0.8-1.5-1.6-1.9
			c-0.4-0.2-0.5-0.6-0.4-1c0.2-0.6,0.2-1.2,0-1.8c-0.3-0.9-1-1.6-2-1.8c-0.4-0.1-0.6-0.4-0.6-0.8c0-0.3,0-0.6-0.1-0.9
			c-0.3-1-1.3-1.8-2.3-1.9c-0.3,0-0.6-0.2-0.7-0.5c-0.4-0.9-1.2-1.4-2.2-1.4c-0.7,0-1.4,0.3-1.8,0.9c-0.2,0.2-0.4,0.3-0.7,0.3
			c-0.3,0-0.7,0-1,0.1c-0.7,0.2-1.3,0.7-1.6,1.4c-0.1,0.3-0.4,0.5-0.8,0.4c0,0,0,0,0,0c-1.3,0-2.3,1.1-2.3,2.3c0,0.3,0.1,0.7,0.2,1
			c0.1,0.2,0.1,0.5,0,0.7c-0.1,0.2-0.3,0.4-0.6,0.4c-1,0.3-1.8,1.2-1.8,2.3C29.9,55.1,30.9,56.1,32.2,56.2
			C32.2,56.2,32.2,56.2,32.2,56.2C32.2,56.2,32.2,56.2,32.2,56.2z"/>
	</g>
	<g>
		<circle class="st1" cx="10.5" cy="23.1" r="3.6"/>
		<path class="st2" d="M10.5,27.5c-2.5,0-4.5-2-4.5-4.5c0-2.5,2-4.5,4.5-4.5s4.5,2,4.5,4.5C15,25.5,13,27.5,10.5,27.5z M10.5,20.3
			c-1.5,0-2.8,1.3-2.8,2.8c0,1.5,1.3,2.8,2.8,2.8s2.8-1.3,2.8-2.8C13.3,21.5,12.1,20.3,10.5,20.3z"/>
	</g>
	<g>
		<path class="st1" d="M18,23.9c0.5-0.6,0.7-1.4,0.7-2.2c0-1.3-0.7-2.4-1.7-3.1c0.1-0.4,0.2-0.8,0.2-1.2c0-2-1.6-3.6-3.6-3.6
			c-0.4,0-0.9,0.1-1.2,0.2c-0.5-1.4-1.8-2.5-3.4-2.5c-2,0-3.6,1.6-3.6,3.6c-2,0-3.6,1.6-3.6,3.6c0,0.6,0.1,1.1,0.4,1.6
			c-0.7,0.7-1.1,1.6-1.1,2.6c0,1,0.4,2,1.1,2.6c-0.7,0.7-1.1,1.6-1.1,2.6c0,2,1.6,3.6,3.6,3.6c0.6,0,1.2-0.2,1.7-0.4
			c0.7,0.7,1.6,1.2,2.7,1.2c1.7,0,3.1-1.2,3.5-2.7c0.7,0.6,1.6,0.9,2.6,0.9c2.3,0,4.2-1.9,4.2-4.2C19.1,25.6,18.7,24.6,18,23.9z"/>
		<path class="st2" d="M8.9,33.6c-1,0-2.1-0.4-2.8-1c-0.5,0.2-1,0.3-1.5,0.3c-2.5,0-4.5-2-4.5-4.5c0-1,0.3-1.9,0.9-2.6
			C0.3,24.9,0,24,0,23.1c0-1,0.3-2,1-2.8c-0.2-0.5-0.2-0.9-0.2-1.4c0-2.2,1.6-4,3.7-4.4c0.4-2.1,2.2-3.7,4.4-3.7
			c1.7,0,3.2,0.9,3.9,2.3c0.3,0,0.5-0.1,0.8-0.1c2.5,0,4.5,2,4.5,4.5c0,0.3,0,0.5-0.1,0.8c1,0.8,1.6,2.1,1.6,3.4
			c0,0.7-0.2,1.5-0.5,2.1c0.6,0.9,1,1.9,1,3c0,2.8-2.2,5-5,5c-0.8,0-1.5-0.2-2.2-0.5C12,32.7,10.5,33.6,8.9,33.6z M6.2,30.7
			c0.2,0,0.5,0.1,0.6,0.3c0.5,0.6,1.3,0.9,2.1,0.9c1.3,0,2.4-0.9,2.7-2.1c0.1-0.3,0.3-0.5,0.5-0.6c0.3-0.1,0.6,0,0.8,0.1
			c0.6,0.5,1.3,0.7,2.1,0.7c1.8,0,3.3-1.5,3.3-3.3c0-0.9-0.3-1.7-0.9-2.3c-0.3-0.3-0.3-0.8-0.1-1.1c0.4-0.5,0.6-1.1,0.6-1.7
			c0-1-0.5-1.8-1.3-2.4c-0.3-0.2-0.5-0.6-0.3-1c0.1-0.3,0.1-0.6,0.1-0.9c0-1.5-1.3-2.8-2.8-2.8c-0.3,0-0.6,0.1-1,0.2
			c-0.2,0.1-0.4,0.1-0.7,0c-0.2-0.1-0.4-0.3-0.4-0.5c-0.4-1.1-1.4-1.9-2.6-1.9c-1.5,0-2.8,1.3-2.8,2.8c0,0.5-0.4,0.8-0.8,0.8
			c-1.5,0-2.8,1.3-2.8,2.8c0,0.4,0.1,0.8,0.3,1.2c0.2,0.3,0.1,0.7-0.2,1c-0.6,0.5-0.9,1.2-0.9,2c0,0.8,0.3,1.5,0.9,2
			c0.2,0.2,0.3,0.4,0.3,0.6c0,0.2-0.1,0.5-0.3,0.6c-0.6,0.5-0.9,1.3-0.9,2c0,1.5,1.3,2.8,2.8,2.8c0.5,0,0.9-0.1,1.3-0.3
			C5.9,30.7,6,30.7,6.2,30.7z"/>
	</g>
	<g>
		<circle class="st3" cx="8.4" cy="26.7" r="3.2"/>
	</g>
	<g>
		<circle class="st3" cx="9.2" cy="25.1" r="2"/>
	</g>
	<g>
		<circle class="st3" cx="9.2" cy="17.4" r="2"/>
	</g>
	<g>
		<circle class="st3" cx="10.7" cy="18.1" r="1.4"/>
	</g>
	<g>
		<circle class="st3" cx="14.1" cy="21.2" r="1.4"/>
	</g>
	<g>
		<ellipse transform="matrix(0.9497 -0.3132 0.3132 0.9497 -16.627 15.581)" class="st3" cx="40.2" cy="59.5" rx="2.6" ry="2.6"/>
	</g>
	<g>
		<ellipse transform="matrix(0.9497 -0.3132 0.3132 0.9497 -16.009 15.6195)" class="st3" cx="40.6" cy="57.6" rx="1.6" ry="1.6"/>
	</g>
	<g>
		<ellipse transform="matrix(0.9497 -0.3132 0.3132 0.9497 -13.689 14.6028)" class="st3" cx="38.6" cy="49.9" rx="2" ry="2"/>
	</g>
	<g>
		<ellipse transform="matrix(0.9497 -0.3132 0.3132 0.9497 -13.6712 15.1066)" class="st3" cx="40.2" cy="50.1" rx="1.4" ry="1.4"/>
	</g>
	<g>
		<ellipse transform="matrix(0.9497 -0.3132 0.3132 0.9497 -14.0583 16.5488)" class="st3" cx="44.5" cy="52" rx="1.4" ry="1.4"/>
	</g>
</g>
</svg>
