<?xml version="1.0" encoding="utf-8"?>
<!-- Generator: Adobe Illustrator 21.0.0, SVG Export Plug-In . SVG Version: 6.00 Build 0)  -->
<svg version="1.1" id="Layer_1" xmlns="http://www.w3.org/2000/svg" xmlns:xlink="http://www.w3.org/1999/xlink" x="0px" y="0px"
	 viewBox="0 0 75.4 75.5" style="enable-background:new 0 0 75.4 75.5;" xml:space="preserve">
<style type="text/css">
	.st0{fill:#5BC6FE;}
	.st1{fill:#144284;}
	.st2{fill:#FFFFFF;}
	.st3{fill:#FC636B;}
</style>
<g>
	<circle class="st0" cx="37.7" cy="37.7" r="37.7"/>
	<g>
		<g>
			<g>
				<path class="st1" d="M33.4,50c-0.2,0-0.4-0.1-0.6-0.2c-0.6-0.5-5.8-5.2-6.7-6.2c-0.4-0.2-2.4,0-4.2,0.6c-0.4,0.1-0.9-0.1-1-0.6
					c-0.1-0.4,0.1-0.9,0.6-1c1.8-0.5,4.9-1.2,5.9,0c0.5,0.7,4.2,4,6.5,6c0.3,0.3,0.4,0.8,0.1,1.2C33.9,49.9,33.6,50,33.4,50z"/>
			</g>
			<g>
				<path class="st1" d="M26.5,43.5c-0.2,0-0.4-0.1-0.6-0.2c-1-1-0.2-3.8,0.4-5.3c0.2-0.4,0.6-0.6,1.1-0.5c0.4,0.2,0.6,0.6,0.5,1.1
					c-0.6,1.6-0.9,3.2-0.8,3.5c0.3,0.3,0.3,0.8,0,1.1C26.9,43.5,26.7,43.5,26.5,43.5z M27.1,42.2L27.1,42.2L27.1,42.2z M27.1,42.1
					C27.1,42.1,27.1,42.1,27.1,42.1C27.1,42.1,27.1,42.1,27.1,42.1z"/>
			</g>
		</g>
		<g>
			<g>
				<path class="st1" d="M40.9,47.7c-0.3,0-0.6-0.2-0.8-0.5c-0.3-0.6-2.6-5.9-3-7.1c-0.3-0.3-1.9-0.8-3.3-1
					c-0.5-0.1-0.8-0.5-0.7-0.9c0.1-0.5,0.5-0.8,0.9-0.7c0,0,1,0.1,2,0.4c1.7,0.4,2.5,1,2.7,1.7c0.2,0.7,1.9,4.5,2.9,6.9
					c0.2,0.4,0,0.9-0.4,1.1C41.1,47.6,41,47.7,40.9,47.7z M37.2,40.1L37.2,40.1L37.2,40.1z"/>
			</g>
			<g>
				<path class="st1" d="M37.8,40.3c-0.3,0-0.7-0.2-0.8-0.5c-0.4-1.1,1-2.8,2.2-4.1c0.3-0.3,0.9-0.3,1.2,0c0.3,0.3,0.3,0.9,0,1.2
					l0,0c-0.9,0.9-1.7,2-1.8,2.4c0.1,0.4-0.1,0.8-0.5,1C38,40.2,37.9,40.3,37.8,40.3z M38.6,39.2L38.6,39.2L38.6,39.2z M38.6,39.1
					C38.6,39.1,38.6,39.1,38.6,39.1C38.6,39.1,38.6,39.1,38.6,39.1z"/>
			</g>
		</g>
		<g>
			<g>
				<path class="st1" d="M54.2,48.6c-0.3,0-0.7-0.2-0.8-0.6c-0.2-0.4,0.1-0.9,0.5-1.1c0.6-0.2,6.1-2.2,7.3-2.4
					c0.3-0.3,0.9-1.8,1.2-3.2c0.1-0.4,0.5-0.7,1-0.6c0.4,0.1,0.7,0.5,0.6,1c0,0-0.2,1-0.5,2c-0.6,1.6-1.1,2.4-1.9,2.6
					c-0.7,0.1-4.7,1.5-7.1,2.4C54.4,48.6,54.3,48.6,54.2,48.6z"/>
			</g>
			<g>
				<path class="st1" d="M64.8,48.3c-0.2,0-0.5-0.1-0.6-0.3l0,0c-0.8-1-1.8-1.9-2.2-2c-0.4,0.1-0.8-0.2-1-0.6
					c-0.1-0.4,0.1-0.9,0.6-1c1.2-0.3,2.8,1.2,3.9,2.5c0.3,0.4,0.2,0.9-0.1,1.2C65.2,48.3,65,48.3,64.8,48.3z M61.9,46L61.9,46
					C61.9,46,61.9,46,61.9,46z"/>
			</g>
		</g>
		<g>
			<g>
				<path class="st1" d="M56.4,59.3c-0.4,0-0.8-0.1-1-0.3c-0.6-0.4-4.2-2.5-6.5-3.8c-0.4-0.2-0.5-0.7-0.3-1.1
					c0.2-0.4,0.7-0.5,1.1-0.3c0.6,0.3,5.6,3.2,6.6,3.9c0.4,0.1,2-0.5,3.3-1.2c0.4-0.2,0.9-0.1,1.1,0.3c0.2,0.4,0.1,0.9-0.3,1.1
					c0,0-0.9,0.5-1.8,0.9C57.7,59.1,56.9,59.3,56.4,59.3z"/>
			</g>
			<g>
				<path class="st1" d="M56.5,63.1c0,0-0.1,0-0.1,0c-0.5-0.1-0.8-0.5-0.7-1c0.2-1.2,0.2-2.6,0-3c-0.3-0.3-0.4-0.7-0.2-1.1
					c0.2-0.4,0.8-0.5,1.1-0.2c1,0.7,0.9,2.9,0.6,4.6C57.2,62.8,56.9,63.1,56.5,63.1z M55.7,59.2C55.7,59.2,55.7,59.2,55.7,59.2
					C55.7,59.2,55.7,59.2,55.7,59.2z"/>
			</g>
		</g>
		<g>
			<g>
				<path class="st1" d="M35.2,74.5c-0.2,0-0.3-0.1-0.5-0.2c0,0-0.8-0.6-1.6-1.3c-1.3-1.2-1.8-2-1.6-2.8c0.2-0.7,0.5-4.9,0.6-7.5
					c0-0.5,0.4-0.8,0.9-0.8c0.5,0,0.8,0.4,0.8,0.9c0,0.7-0.4,6.5-0.7,7.7c0.1,0.4,1.3,1.6,2.5,2.4c0.4,0.3,0.5,0.8,0.2,1.2
					C35.8,74.3,35.5,74.5,35.2,74.5z"/>
			</g>
			<g>
				<path class="st1" d="M29.1,73.5c-0.4,0-0.7-0.2-0.8-0.6c-0.1-0.4,0.1-0.9,0.6-1h0c1.2-0.4,2.5-0.9,2.7-1.3
					c0.1-0.4,0.5-0.7,0.9-0.6c0.5,0.1,0.8,0.5,0.7,0.9C33,72.1,31,73,29.3,73.5C29.2,73.5,29.2,73.5,29.1,73.5z M31.5,70.7
					C31.5,70.7,31.5,70.7,31.5,70.7C31.5,70.7,31.5,70.7,31.5,70.7z"/>
			</g>
		</g>
		<g>
			<g>
				<path class="st1" d="M48.5,48.7C48.5,48.7,48.5,48.7,48.5,48.7c-0.5,0-0.8-0.4-0.8-0.8c0-0.7,0-6.5,0.2-7.7
					c-0.2-0.4-1.4-1.5-2.6-2.3c-0.4-0.2-0.5-0.8-0.3-1.1c0.2-0.4,0.8-0.5,1.1-0.3c0,0,0.8,0.5,1.7,1.2c1.3,1.1,1.9,1.9,1.8,2.7
					c-0.1,0.7-0.2,4.9-0.2,7.5C49.3,48.3,48.9,48.7,48.5,48.7z M47.8,40.1L47.8,40.1L47.8,40.1z"/>
			</g>
			<g>
				<path class="st1" d="M48.7,40.6C48.7,40.6,48.7,40.6,48.7,40.6c-0.5,0-0.9-0.4-0.8-0.9c0.1-1.2,2.1-2.2,3.7-2.8
					c0.4-0.2,0.9,0.1,1.1,0.5c0.2,0.4-0.1,0.9-0.5,1.1l0,0c-1.2,0.4-2.4,1.1-2.6,1.4C49.4,40.3,49.1,40.6,48.7,40.6z M49.5,39.9
					C49.5,39.9,49.5,39.9,49.5,39.9C49.5,39.9,49.5,39.9,49.5,39.9z"/>
			</g>
		</g>
		<g>
			<g>
				<path class="st1" d="M47.1,74.5c-0.1,0-0.2,0-0.2,0c0,0-1-0.3-1.9-0.7c-1.6-0.7-2.3-1.4-2.4-2.1c-0.1-0.7-1.1-4.8-1.7-7.3
					c-0.1-0.4,0.2-0.9,0.6-1c0.4-0.1,0.9,0.2,1,0.6c0.2,0.6,1.6,6.3,1.8,7.5c0.3,0.4,1.7,1.1,3.1,1.5c0.4,0.1,0.7,0.6,0.5,1
					C47.8,74.2,47.4,74.5,47.1,74.5z M44.2,71.3C44.2,71.3,44.2,71.3,44.2,71.3z"/>
			</g>
			<g>
				<path class="st1" d="M40.9,75.5c-0.3,0-0.5-0.1-0.7-0.4c-0.3-0.4-0.2-0.9,0.2-1.2c1-0.7,2-1.7,2.2-2c0-0.4,0.2-0.8,0.7-0.9
					c0.5-0.1,0.9,0.2,1,0.7c0.2,1.2-1.4,2.7-2.9,3.7C41.3,75.5,41.1,75.5,40.9,75.5z M42.6,72C42.6,72,42.6,72,42.6,72
					C42.6,72,42.6,72,42.6,72z M42.6,71.9L42.6,71.9C42.6,71.9,42.6,71.9,42.6,71.9z"/>
			</g>
		</g>
		<g>
			<g>
				<path class="st1" d="M18.7,69.7c0,0-0.1,0-0.1,0c-0.5-0.1-0.8-0.5-0.7-1c0.3-1.8,1-5,2.5-5.3c0.8-0.2,5.4-2,8.3-3.2
					c0.4-0.2,0.9,0,1.1,0.5c0.2,0.4,0,0.9-0.5,1.1c-0.7,0.3-7.2,2.9-8.5,3.3c-0.4,0.3-1,2.2-1.3,4C19.5,69.5,19.1,69.7,18.7,69.7z"
					/>
			</g>
			<g>
				<path class="st1" d="M20,65.3c-0.7,0-1.5-0.4-2.6-1.3c-0.8-0.7-1.5-1.4-1.5-1.5c-0.3-0.3-0.3-0.9,0-1.2c0.3-0.3,0.9-0.3,1.2,0
					c1.2,1.3,2.4,2.2,2.8,2.3c0.4-0.1,0.9,0.1,1,0.5c0.2,0.4-0.1,0.9-0.5,1.1C20.3,65.2,20.2,65.3,20,65.3z"/>
			</g>
		</g>
		<g>
			<path class="st2" d="M53.6,48c0.3-0.6,0.4-1.2,0.4-1.8c0-2.2-1.8-4.1-4.1-4.1c-0.6,0-1.2,0.1-1.7,0.4c-0.9-0.9-2.2-1.4-3.6-1.4
				c-2.2,0-4,1.3-4.9,3.2c-0.8-0.7-1.9-1.1-3-1.1c-1.9,0-3.6,1.2-4.3,2.9c-0.2,0.5-0.3,1.1-0.3,1.6c0,0.2,0,0.4,0,0.5
				c-2.3,0.2-4.1,2.2-4.1,4.5c0,0.3,0,0.5,0.1,0.7c-1.8,0.6-3.1,2.3-3.1,4.3c0,1.4,0.7,2.7,1.7,3.5c-0.1,0.4-0.2,0.8-0.2,1.3
				c0,2.9,2.4,5.3,5.3,5.3c2.1,0,4-1.3,4.8-3.1c0.7,0.4,1.4,0.6,2.3,0.6c0.9,0,1.8-0.3,2.5-0.7c0.7,0.5,1.6,0.7,2.5,0.7
				c2.7,0,4.8-2.2,4.8-4.8c0-0.1,0-0.3,0-0.4c1.8-0.4,3.1-2,3.1-3.9c0-0.2,0-0.3,0-0.5c0,0,0,0,0,0c2.2,0,4.1-1.8,4.1-4.1
				C56.1,50,55.1,48.6,53.6,48z"/>
			<path class="st1" d="M32,68.8c-3.4,0-6.2-2.8-6.2-6.2c0-0.3,0-0.7,0.1-1c-1-1-1.6-2.4-1.6-3.8c0-2.1,1.2-4,3-4.9
				c0-0.1,0-0.1,0-0.2c0-2.5,1.7-4.6,4.1-5.2c0-0.6,0.1-1.2,0.4-1.8c0.8-2.1,2.8-3.5,5-3.5c1,0,1.9,0.3,2.7,0.7
				c1.1-1.7,3.1-2.8,5.1-2.8c1.4,0,2.7,0.4,3.7,1.3c0.5-0.2,1-0.3,1.6-0.3c2.7,0,4.9,2.2,4.9,4.9c0,0.5-0.1,1-0.2,1.5
				c1.4,0.9,2.3,2.4,2.3,4.1c0,2.4-1.8,4.4-4.1,4.8c-0.1,1.9-1.3,3.6-3,4.3c-0.1,3-2.6,5.4-5.6,5.4c-0.9,0-1.8-0.2-2.5-0.6
				c-0.8,0.4-1.7,0.6-2.5,0.6c-0.6,0-1.3-0.1-1.9-0.3C36.1,67.7,34.1,68.8,32,68.8z M36.8,43.9c-1.5,0-2.9,1-3.5,2.4
				c-0.2,0.4-0.2,0.9-0.2,1.3c0,0.1,0,0.3,0,0.4c0,0.2,0,0.4-0.2,0.6c-0.1,0.2-0.3,0.3-0.6,0.3c-1.9,0.2-3.3,1.8-3.3,3.7
				c0,0.2,0,0.4,0.1,0.6c0.1,0.4-0.2,0.8-0.6,0.9C27,54.8,26,56.2,26,57.8c0,1.1,0.5,2.2,1.4,2.9c0.2,0.2,0.4,0.5,0.3,0.8
				c-0.1,0.4-0.1,0.7-0.1,1.1c0,2.5,2,4.5,4.5,4.5c1.7,0,3.4-1,4.1-2.6c0.1-0.2,0.3-0.4,0.5-0.4c0.2-0.1,0.5-0.1,0.7,0.1
				c0.6,0.3,1.2,0.5,1.9,0.5c0.7,0,1.5-0.2,2.1-0.6c0.3-0.2,0.6-0.2,0.9,0c0.6,0.4,1.4,0.6,2.1,0.6c2.2,0,4-1.8,4-4
				c0-0.1,0-0.2,0-0.3c0-0.4,0.2-0.8,0.6-0.9c1.4-0.4,2.4-1.6,2.4-3.1c0-0.1,0-0.3,0-0.4c0-0.2,0-0.5,0.2-0.7
				c0.2-0.2,0.4-0.3,0.6-0.3l0,0c1.8,0,3.2-1.4,3.2-3.2c0-1.3-0.8-2.5-2-3c-0.2-0.1-0.4-0.3-0.5-0.5s-0.1-0.5,0-0.7
				c0.2-0.5,0.4-0.9,0.4-1.5c0-1.8-1.4-3.2-3.2-3.2c-0.5,0-0.9,0.1-1.4,0.3c-0.3,0.1-0.7,0.1-0.9-0.1c-0.8-0.8-1.9-1.2-3-1.2
				c-1.8,0-3.4,1-4.1,2.7C40.5,44.8,40.3,45,40,45c-0.3,0.1-0.5,0-0.7-0.2C38.6,44.3,37.7,43.9,36.8,43.9z M52.1,54.9L52.1,54.9
				L52.1,54.9z"/>
		</g>
		<g>
			<path class="st1" d="M28.2,54.2c-0.1,0-0.2,0-0.3-0.1L22.3,52c-0.4-0.2-0.6-0.6-0.5-1.1c0.2-0.4,0.6-0.6,1.1-0.5l5.7,2.2
				c0.4,0.2,0.6,0.6,0.5,1.1C28.9,54,28.6,54.2,28.2,54.2z"/>
		</g>
		<g>
			<circle class="st3" cx="43.8" cy="59.1" r="2.8"/>
		</g>
		<g>
			<circle class="st3" cx="48.7" cy="51.2" r="2.8"/>
		</g>
		<g>
			<circle class="st3" cx="47.9" cy="48.4" r="2"/>
		</g>
		<g>
			<g>
				<circle class="st3" cx="35" cy="58.6" r="2.8"/>
			</g>
			<g>
				<circle class="st3" cx="32.1" cy="61.8" r="2.8"/>
			</g>
			<g>
				<circle class="st3" cx="31.4" cy="58.2" r="2"/>
			</g>
		</g>
		<g>
			<circle class="st3" cx="40.6" cy="49.8" r="2"/>
		</g>
		<g>
			<circle class="st3" cx="37.7" cy="49.2" r="3"/>
		</g>
		<g>
			<circle class="st3" cx="37.9" cy="51.9" r="2.7"/>
		</g>
		<g>
			<path class="st3" d="M37.9,54.6c1.5,0,2.7-1.2,2.7-2.7c0-1.5-1.2-2.7-2.7-2.7"/>
		</g>
		<g>
			<circle class="st3" cx="43" cy="57.2" r="2"/>
		</g>
		<g>
			<path class="st3" d="M43.3,58.9c1.1-0.3,1.7-1.5,1.3-2.6"/>
		</g>
	</g>
	<g>
		<g>
			<path class="st2" d="M35.3,13.6c0.1-0.3,0.1-0.7,0.1-1c0.2-3.2-2.3-6-5.6-6.2c-1-0.1-1.9,0.1-2.8,0.5c-1-1.5-2.7-2.6-4.6-2.7
				c-3.2-0.2-6,2.3-6.2,5.6c-0.1,1.8,0.6,3.5,1.8,4.6c-1.4,0.9-2.3,2.4-2.3,4.2c0,2.8,2.2,5,5,5c1.1,0,2.1-0.4,3-1
				c0.9,2,3,3.4,5.3,3.4c2,0,3.8-1,4.8-2.5c0.3,0.1,0.7,0.1,1.1,0.1c2.8,0,5-2.2,5-5C40.1,15.9,38,13.7,35.3,13.6z"/>
			<path class="st1" d="M29.2,26.8c-2.3,0-4.4-1.2-5.6-3c-0.8,0.4-1.7,0.6-2.7,0.6c-3.2,0-5.8-2.6-5.8-5.8c0-1.7,0.7-3.2,1.9-4.3
				c-1-1.3-1.5-2.9-1.5-4.6c0.2-3.7,3.4-6.5,7.1-6.3c1.9,0.1,3.7,1,4.9,2.5c0.8-0.3,1.7-0.4,2.5-0.3c3.7,0.2,6.5,3.4,6.3,7.1
				c0,0.1,0,0.2,0,0.2c2.6,0.6,4.6,2.9,4.6,5.7c0,3.2-2.6,5.8-5.8,5.8c-0.2,0-0.5,0-0.7,0C33.1,25.9,31.2,26.8,29.2,26.8z
				 M23.8,21.8c0.1,0,0.1,0,0.2,0c0.2,0.1,0.4,0.2,0.5,0.4c0.8,1.8,2.6,2.9,4.6,2.9c1.6,0,3.2-0.8,4.1-2.2c0.2-0.3,0.5-0.4,0.9-0.3
				c0.3,0.1,0.6,0.1,0.9,0.1c2.3,0,4.2-1.9,4.2-4.2c0-2.2-1.7-4-3.9-4.2c-0.2,0-0.5-0.1-0.6-0.3c-0.1-0.2-0.2-0.4-0.1-0.7
				c0.1-0.3,0.1-0.6,0.1-0.9c0.2-2.8-2-5.2-4.8-5.3c-0.8,0-1.6,0.1-2.4,0.5c-0.4,0.2-0.8,0-1-0.3c-0.9-1.4-2.4-2.2-4-2.3
				c-2.8-0.2-5.2,2-5.3,4.8c-0.1,1.5,0.5,2.9,1.6,4c0.2,0.2,0.3,0.4,0.3,0.7c0,0.3-0.2,0.5-0.4,0.6c-1.2,0.8-1.9,2.1-1.9,3.5
				c0,2.3,1.9,4.2,4.2,4.2c0.9,0,1.7-0.3,2.5-0.8C23.5,21.9,23.7,21.8,23.8,21.8z"/>
		</g>
		<circle class="st3" cx="22.7" cy="10.3" r="3.3"/>
		<circle class="st3" cx="29.5" cy="19.2" r="3.3"/>
		<circle class="st3" cx="25" cy="12.8" r="2.1"/>
		<circle class="st3" cx="32.7" cy="18.6" r="2.5"/>
	</g>
	<g>
		<circle class="st3" cx="13.3" cy="35.3" r="4.6"/>
		<circle class="st3" cx="8.6" cy="40.6" r="4.6"/>
		<circle class="st3" cx="7.5" cy="34.7" r="3.3"/>
	</g>
	<g>
		<g>
			<path class="st2" d="M67.9,34.1c0.6,0.2,1.2,0.3,1.9,0.2c2.2-0.3,3.7-2.4,3.4-4.5c-0.1-0.6-0.3-1.2-0.6-1.6c0.7-1,1-2.4,0.8-3.7
				c-0.3-2.1-1.8-3.7-3.8-4.3c0.6-0.9,0.8-2,0.7-3.1c-0.3-1.9-1.7-3.3-3.5-3.7c-0.5-0.1-1.1-0.1-1.6-0.1c-0.2,0-0.3,0.1-0.5,0.1
				c-0.6-2.2-2.7-3.7-5-3.3c-0.2,0-0.5,0.1-0.7,0.2c-0.9-1.7-2.7-2.7-4.7-2.4c-1.4,0.2-2.5,1-3.2,2.1c-0.4,0-0.8,0-1.3,0
				c-2.9,0.4-4.8,3.1-4.4,6c0.3,2.1,1.8,3.7,3.7,4.3c-0.3,0.7-0.3,1.5-0.2,2.3c0.1,0.9,0.5,1.7,1.1,2.4c-0.3,0.8-0.5,1.7-0.3,2.6
				c0.4,2.6,2.8,4.4,5.4,4c0.1,0,0.2,0,0.4-0.1c0.7,1.6,2.4,2.7,4.3,2.4c0.2,0,0.3-0.1,0.5-0.1c0,0,0,0,0,0c0.3,2.2,2.4,3.7,4.5,3.4
				C66.3,36.8,67.5,35.6,67.9,34.1z"/>
			<path class="st1" d="M64.1,38c-2.1,0-3.9-1.3-4.6-3.3c-1.9,0.2-3.7-0.8-4.6-2.3c-3,0.3-5.7-1.8-6.1-4.7c-0.1-0.9-0.1-1.7,0.2-2.6
				c-0.5-0.7-0.8-1.5-0.9-2.4c-0.1-0.6-0.1-1.3,0-1.9c-1.9-0.8-3.2-2.6-3.5-4.7c-0.2-1.6,0.2-3.2,1.1-4.5c1-1.3,2.4-2.2,4-2.4
				c0.3,0,0.6-0.1,1-0.1C51.5,8,52.7,7.2,54.1,7c2-0.3,4,0.6,5.2,2.3c0.1,0,0.1,0,0.2,0c2.4-0.4,4.8,1,5.7,3.2
				c0.6-0.1,1.2,0,1.8,0.1c2.1,0.5,3.8,2.3,4.1,4.4c0.1,0.9,0,1.9-0.3,2.8c1.8,0.9,3.1,2.6,3.4,4.6c0.2,1.3-0.1,2.7-0.7,3.8
				c0.2,0.5,0.4,1,0.5,1.5c0.2,1.3-0.1,2.5-0.9,3.6c-0.8,1-1.9,1.7-3.2,1.9c-0.5,0.1-1,0.1-1.4,0c-0.7,1.5-2,2.5-3.7,2.8
				C64.5,37.9,64.3,38,64.1,38z M60.1,32.9c0.2,0,0.3,0,0.5,0.1c0.2,0.1,0.3,0.3,0.4,0.6c0,0,0,0,0,0c0.3,1.7,1.9,2.9,3.6,2.7
				c1.3-0.2,2.3-1.1,2.6-2.3c0.1-0.2,0.2-0.4,0.4-0.5c0.2-0.1,0.4-0.1,0.7-0.1c0.5,0.2,1,0.2,1.5,0.1c0.8-0.1,1.6-0.6,2.1-1.2
				c0.5-0.7,0.7-1.5,0.6-2.3c-0.1-0.5-0.2-0.9-0.5-1.3c-0.2-0.3-0.2-0.6,0-0.9c0.6-0.9,0.9-2,0.7-3.1c-0.3-1.7-1.5-3.1-3.2-3.6
				c-0.3-0.1-0.5-0.3-0.6-0.5c-0.1-0.2-0.1-0.5,0.1-0.7c0.5-0.7,0.7-1.6,0.5-2.5c-0.2-1.5-1.4-2.7-2.8-3c-0.4-0.1-0.9-0.1-1.3,0
				c-0.1,0-0.3,0-0.4,0.1c-0.2,0.1-0.4,0-0.6-0.1c-0.2-0.1-0.3-0.3-0.4-0.5c-0.5-1.8-2.2-3-4.1-2.7c-0.2,0-0.4,0.1-0.6,0.1
				c-0.4,0.1-0.8-0.1-1-0.4c-0.7-1.4-2.2-2.2-3.8-2c-1.1,0.2-2,0.8-2.6,1.7c-0.2,0.3-0.5,0.4-0.8,0.4c-0.4,0-0.7,0-1.1,0
				c-1.2,0.2-2.2,0.8-2.9,1.7c-0.7,0.9-1,2.1-0.8,3.3c0.3,1.7,1.5,3.1,3.1,3.6c0.2,0.1,0.4,0.2,0.5,0.4c0.1,0.2,0.1,0.4,0,0.7
				c-0.2,0.6-0.3,1.2-0.2,1.9c0.1,0.7,0.4,1.4,0.9,2c0.2,0.2,0.3,0.6,0.1,0.9c-0.3,0.7-0.4,1.4-0.3,2.1c0.3,2.1,2.3,3.6,4.4,3.3
				c0.1,0,0.2,0,0.3-0.1c0.4-0.1,0.8,0.1,1,0.5c0.6,1.3,1.9,2.1,3.4,1.9c0.1,0,0.3,0,0.4-0.1C60,32.9,60,32.9,60.1,32.9z"/>
		</g>
		<ellipse transform="matrix(0.9893 -0.146 0.146 0.9893 -3.2199 8.4172)" class="st3" cx="55.7" cy="26.1" rx="2.8" ry="2.8"/>
		<ellipse transform="matrix(0.9893 -0.146 0.146 0.9893 -3.6585 9.6765)" class="st3" cx="64.1" cy="29.8" rx="2.8" ry="2.8"/>
		<ellipse transform="matrix(0.9893 -0.146 0.146 0.9893 -1.9665 8.2068)" class="st3" cx="54.9" cy="17.5" rx="2.8" ry="2.8"/>
		<ellipse transform="matrix(0.9893 -0.146 0.146 0.9893 -3.4589 10.0498)" class="st3" cx="66.7" cy="28.6" rx="2" ry="2"/>
		<ellipse transform="matrix(0.9893 -0.146 0.146 0.9893 -1.6587 7.6622)" class="st3" cx="51.4" cy="15.1" rx="2.8" ry="2.8"/>
		<ellipse transform="matrix(0.9893 -0.146 0.146 0.9893 -1.4566 8.1509)" class="st3" cx="54.8" cy="14" rx="2" ry="2"/>
		<ellipse transform="matrix(0.9893 -0.146 0.146 0.9893 -2.0595 9.6093)" class="st3" cx="64.4" cy="18.8" rx="2.9" ry="2.9"/>
		<g>
			<ellipse transform="matrix(0.9893 -0.146 0.146 0.9893 -2.486 9.6234)" class="st3" cx="64.3" cy="21.7" rx="2" ry="2"/>
			<ellipse transform="matrix(0.9893 -0.146 0.146 0.9893 -2.1657 9.2383)" class="st3" cx="61.8" cy="19.4" rx="2.6" ry="2.6"/>
		</g>
		<ellipse transform="matrix(0.9893 -0.146 0.146 0.9893 -3.05 8.658)" class="st3" cx="57.4" cy="25.1" rx="2" ry="2"/>
	</g>
</g>
</svg>
