<?xml version="1.0" encoding="utf-8"?>
<!-- Generator: Adobe Illustrator 21.0.0, SVG Export Plug-In . SVG Version: 6.00 Build 0)  -->
<svg version="1.1" id="Layer_1" xmlns="http://www.w3.org/2000/svg" xmlns:xlink="http://www.w3.org/1999/xlink" x="0px" y="0px"
	 viewBox="0 0 84.7 83.9" style="enable-background:new 0 0 84.7 83.9;" xml:space="preserve">
<style type="text/css">
	.st0{fill:#FA636B;}
	.st1{fill:#5BC4FC;}
	.st2{fill:#154283;}
	.st3{fill:#FFFFFF;}
</style>
<symbol  id="New_Symbol_2" viewBox="-255.5 -253 511 506">
	<g>
		
			<ellipse transform="matrix(0.2831 -0.9591 0.9591 0.2831 257.7752 146.2518)" class="st0" cx="226.7" cy="-99.3" rx="10.3" ry="10.3"/>
	</g>
	<g>
		<g>
			<g>
				<path class="st1" d="M-22.3,253V53.2l-39.1-21.8c-8.1-4-11.4-13.8-7.4-21.8l4.6-9.1c4.1-8,13.9-11.3,22-7.3L0,13.4L45.5-6.8
					c8.1-4,18-0.7,22,7.3l4.6,9.1c4.1,8,0.7,17.8-7.4,21.8L20.8,53.1V253"/>
			</g>
			<g>
				<line class="st1" x1="-22.3" y1="212.3" x2="20.8" y2="212.3"/>
				<path class="st2" d="M20.8,206.8h-43.2c-3,0-5.5,2.5-5.5,5.5s2.5,5.5,5.5,5.5h43.2c3,0,5.5-2.5,5.5-5.5S23.9,206.8,20.8,206.8z"
					/>
			</g>
			<g>
				<line class="st1" x1="-22.3" y1="170.6" x2="20.8" y2="170.6"/>
				<path class="st2" d="M20.8,165.1h-43.2c-3,0-5.5,2.5-5.5,5.5s2.5,5.5,5.5,5.5h43.2c3,0,5.5-2.5,5.5-5.5S23.9,165.1,20.8,165.1z"
					/>
			</g>
			<g>
				<line class="st1" x1="-22.3" y1="130.8" x2="20.8" y2="130.8"/>
				<path class="st2" d="M20.8,125.3h-43.2c-3,0-5.5,2.5-5.5,5.5s2.5,5.5,5.5,5.5h43.2c3,0,5.5-2.5,5.5-5.5S23.9,125.3,20.8,125.3z"
					/>
			</g>
			<g>
				<line class="st1" x1="-22.3" y1="90.1" x2="20.8" y2="90.1"/>
				<path class="st2" d="M20.8,84.6h-43.2c-3,0-5.5,2.5-5.5,5.5s2.5,5.5,5.5,5.5h43.2c3,0,5.5-2.5,5.5-5.5S23.9,84.6,20.8,84.6z"/>
			</g>
		</g>
		<g>
			<path class="st3" d="M58.8,56.2c0,36.8,14.8,56.3,33.8,56.3c57.8,0,124.8-100.3,146.2-168.8c8.8-28,11.2-44.7,11.2-67.5
				c0-45-11.2-123.8-56.2-123.8S25-236.3,25-135C25-22.5,39.3-5.4,58.8,56.2z"/>
			<path class="st2" d="M193.8-253c-17.8,0-63.5,1.8-103.4,18.7c-21.1,8.9-37.8,20.9-49.6,35.5c-14.1,17.5-21.3,39-21.3,63.7
				c0,93.5,9.6,121.4,24.2,163.7c3,8.8,6.2,17.9,9.5,28.4c0.2,37,15.6,60.9,39.2,60.9C152.8,118,221.4,17.5,244-54.6
				c8.6-27.4,11.5-44.9,11.5-69.1c0-13.8-1.1-49.3-11.5-80.5C236.6-226.5,221.8-253,193.8-253z M92.5,107
				c-17.2,0-28.2-19.9-28.2-50.8c0-0.6-0.1-1.1-0.3-1.7c-3.5-11-6.7-20.4-9.9-29.5C39.9-16.1,30.5-43.3,30.5-135
				c0-41.2,21.6-71.1,64.1-89.2c38.1-16.1,82-17.8,99.1-17.8c17.3,0,30.7,13.9,39.8,41.2c6.9,20.6,11,49.4,11,77
				c0,23.3-2.7,39.3-11,65.9c-11,35.1-33.4,76.6-58.5,108.3C146,86.9,116.7,107,92.5,107z M58.8,56.3L58.8,56.3L58.8,56.3z"/>
		</g>
		<g>
			<path class="st3" d="M-58.8,56.2c0,36.8-14.8,56.3-33.8,56.3c-57.8,0-124.8-100.3-146.2-168.8c-8.8-28-11.2-44.7-11.2-67.5
				c0-45,11.2-123.8,56.2-123.8S-25-236.3-25-135C-25-22.5-39.3-5.4-58.8,56.2z"/>
			<path class="st2" d="M-193.8-253c-28.1,0-42.8,26.5-50.2,48.8c-10.4,31.2-11.5,66.7-11.5,80.5c0,24.3,2.9,41.7,11.5,69.1
				C-221.4,17.5-152.8,118-92.5,118c23.7,0,39-23.9,39.2-60.9c3.3-10.5,6.5-19.6,9.5-28.4C-29.1-13.6-19.5-41.5-19.5-135
				c0-24.8-7.2-46.2-21.3-63.7c-11.8-14.6-28.5-26.6-49.6-35.5C-130.3-251.2-176-253-193.8-253z M-92.5,107
				c-24.2,0-53.5-20.1-82.5-56.6c-25.1-31.7-47.5-73.2-58.5-108.3c-8.3-26.6-11-42.6-11-65.9c0-27.6,4.1-56.4,11-77
				c9.1-27.4,22.5-41.2,39.8-41.2c17.1,0,61,1.7,99.1,17.8c42.6,18,64.1,48,64.1,89.2c0,91.7-9.4,118.9-23.6,160.1
				c-3.1,9.1-6.4,18.5-9.9,29.5c-0.2,0.5-0.3,1.1-0.3,1.7C-64.2,87.1-75.3,107-92.5,107z M-53.2,56.3L-53.2,56.3L-53.2,56.3z"/>
		</g>
		<g>
			<g>
				<path class="st2" d="M-157.1-157.8c-0.3,0-0.6,0-0.8,0.1c-3,0.5-5.1,3.3-4.6,6.3c0.3,1.7,6.8,43.2,23,82.3
					c7,16.8,24.4,36.6,51.8,58.8c1.5,1.2,2.9,2.3,4.3,3.5c19,15.1,35.2,25.3,35.9,25.8c2.6,1.6,6,0.9,7.6-1.7c1.6-2.6,0.9-6-1.7-7.6
					c-0.2-0.1-16.4-10.4-35-25.1c-1.4-1.1-2.8-2.2-4.2-3.4c-25.6-20.8-42.3-39.6-48.6-54.5c-15.7-37.8-22.3-79.3-22.3-79.7
					C-152.1-155.9-154.4-157.8-157.1-157.8z"/>
			</g>
			<g>
				<path class="st2" d="M-79.4-163.2c-0.2,0-0.4,0-0.6,0c-3,0.3-5.2,3-4.9,6c1.1,10.9-2.6,31.9-6.1,52.2
					c-2.9,16.4-5.9,33.4-6.8,47.2c-0.4,5.8-1.8,35.4,8.1,45.3c2.1,2.1,5.6,2.1,7.8,0c2.1-2.1,2.1-5.6,0-7.8
					c-4.7-4.7-5.7-24.7-4.9-36.8c0.9-13.2,3.9-29.9,6.7-46.1c3.9-22.1,7.6-42.9,6.2-55.3C-74.2-161.1-76.6-163.2-79.4-163.2z"/>
			</g>
			<g>
				<path class="st2" d="M-189.5-143.8c-2.4,0-4.6,1.5-5.3,3.9c-0.9,2.9,0.8,6,3.7,6.8c6.6,2,28.4,21.2,41.7,34.3
					c2.2,2.1,5.7,2.1,7.8-0.1c2.1-2.2,2.1-5.7-0.1-7.8c-5.7-5.6-34.8-33.5-46.3-36.9C-188.5-143.7-189-143.8-189.5-143.8z"/>
			</g>
			<g>
				<path class="st2" d="M-56.7-135.1c-2.4,0-4.6,1.6-5.3,4.1c-1.9,6.9-17.4,20.8-27.8,28.4c-2.5,1.8-3,5.2-1.2,7.7
					c1.8,2.5,5.2,3,7.7,1.2c4.7-3.4,28.4-21.3,31.9-34.4c0.8-2.9-0.9-6-3.9-6.8C-55.7-135.1-56.2-135.1-56.7-135.1z"/>
			</g>
			<g>
				<path class="st2" d="M-206.8-59.5c-2.1,0-4,1.2-5,3.2c-1.3,2.8-0.1,6,2.6,7.3c11.3,5.3,34.7,7.8,47.6,8.8
					c23.3,1.8,41.9-3.6,42.6-3.8c2.9-0.9,4.6-3.9,3.7-6.8c-0.9-2.9-3.9-4.6-6.8-3.7h0c-0.2,0.1-17.5,5.1-38.7,3.4
					c-20.7-1.6-36.7-4.5-43.8-7.8C-205.2-59.4-206-59.5-206.8-59.5z"/>
			</g>
			<g>
				<path class="st2" d="M-198.2-93c-0.7,0-1.4,0.1-2.1,0.4c-2.8,1.2-4.1,4.4-2.9,7.2c0.2,0.4,4.5,10.5,10.5,20.8
					c9.1,15.5,17,23,24.8,23.6c3,0.2,5.7-2,5.9-5.1c0.2-3-2-5.7-5.1-5.9c-5-0.4-16.6-15.6-26-37.8C-194-91.8-196-93-198.2-93z"/>
			</g>
			<g>
				<path class="st2" d="M-85.8-21.7c-1.2,0-2.4,0.4-3.4,1.2c-0.1,0.1-12,9.6-27.6,18.4c-20.6,11.6-37.9,16.4-50,14
					c-3-0.6-5.9,1.3-6.5,4.3c-0.6,3,1.3,5.9,4.3,6.5c14.9,3,34.2-2.1,57.5-15.2c16.4-9.2,28.6-19,29.1-19.4c2.4-1.9,2.7-5.4,0.8-7.7
					C-82.6-21-84.2-21.7-85.8-21.7z"/>
			</g>
			<g>
				<path class="st2" d="M-145.2-16.3c-1.7,0-3.3,0.8-4.4,2.2c-1.8,2.4-1.3,5.9,1.1,7.7c0.8,0.6,19.1,14.2,35,13
					c3-0.2,5.3-2.9,5.1-5.9c-0.2-3-2.9-5.3-5.9-5.1c-9.8,0.8-23.3-7.5-27.6-10.8C-142.9-16-144.1-16.3-145.2-16.3z"/>
			</g>
			<g>
				<path class="st2" d="M-132.8,6.2c-1.2,0-2.4,0.4-3.4,1.2c-14.7,11.6-21.6,35.5-21.9,36.5c-0.8,2.9,0.9,6,3.8,6.8
					c2.9,0.8,6-0.9,6.8-3.8c0.1-0.3,6.3-21.5,18.1-30.8c2.4-1.9,2.8-5.3,0.9-7.7C-129.6,6.9-131.2,6.2-132.8,6.2z"/>
			</g>
			<g>
				<path class="st2" d="M-126.9-115.7c-2.4,0-4.6,1.6-5.3,4c-5.5,19.9-5.6,41.6-5.6,42.5c0,3,2.5,5.5,5.5,5.5c0,0,0,0,0,0
					c3,0,5.5-2.5,5.5-5.5c0-0.2,0.1-21.1,5.2-39.6c0.8-2.9-0.9-6-3.8-6.8C-125.9-115.6-126.4-115.7-126.9-115.7z"/>
			</g>
		</g>
		<g>
			<g>
				<path class="st2" d="M152.8-108.1c-2.1,0-4.1,1.2-5,3.3c0,0.1-4.4,9.7-17.8,30.6c-10,15.7-28.2,38.4-49,55.3
					c-1.4,1.1-2.8,2.3-4.2,3.4C58.3-0.9,42,9.4,41.9,9.5c-2.6,1.6-3.3,5-1.7,7.6c1.6,2.6,5,3.3,7.6,1.7c0.7-0.4,16.9-10.7,35.9-25.8
					c1.4-1.1,2.9-2.3,4.3-3.5c21.9-17.8,40.8-41.6,51.3-58c13.9-21.7,18.4-31.6,18.5-32.1c1.2-2.8,0-6-2.8-7.3
					C154.3-108,153.5-108.1,152.8-108.1z"/>
			</g>
			<g>
				<path class="st2" d="M79.6-163.2c-2.8,0-5.2,2.1-5.5,4.9c-1.3,12.4,2.4,33.2,6.2,55.3c2.8,16.1,5.8,32.8,6.7,46.1
					c0.8,12.1-0.2,32.1-4.9,36.8c-2.1,2.1-2.1,5.6,0,7.8c2.1,2.1,5.6,2.1,7.8,0c9.9-9.9,8.5-39.5,8.1-45.3
					c-1-13.9-3.9-30.8-6.8-47.3c-3.6-20.3-7.3-41.4-6.1-52.2c0.3-3-1.9-5.7-4.9-6C80-163.2,79.8-163.2,79.6-163.2z"/>
			</g>
			<g>
				<path class="st2" d="M56.9-135.1c-0.5,0-1,0.1-1.5,0.2c-2.9,0.8-4.7,3.8-3.9,6.8c1.6,6,7.5,13.5,17.8,22.8
					c7.2,6.5,13.9,11.4,14.2,11.6c2.5,1.8,5.9,1.3,7.7-1.2c1.8-2.4,1.3-5.9-1.2-7.7c-10.4-7.6-25.9-21.5-27.8-28.4
					C61.5-133.5,59.3-135.1,56.9-135.1z"/>
			</g>
			<g>
				<path class="st2" d="M207-59.5c-0.8,0-1.6,0.2-2.3,0.5c-7.1,3.3-23.1,6.2-43.8,7.8c-21.2,1.7-38.5-3.4-38.7-3.4
					c-2.9-0.9-6,0.8-6.8,3.7c-0.9,2.9,0.8,6,3.7,6.8c0.8,0.2,19.4,5.6,42.6,3.8c12.9-1,36.3-3.5,47.6-8.8c2.8-1.3,3.9-4.6,2.6-7.3
					C211.1-58.4,209.1-59.5,207-59.5z"/>
			</g>
			<g>
				<path class="st2" d="M198.4-93c-2.1,0-4.2,1.3-5.1,3.3c-9.4,22.1-21,37.4-26,37.8c-3,0.2-5.3,2.9-5.1,5.9s2.9,5.3,5.9,5.1
					c7.8-0.6,15.6-8.1,24.8-23.6c6.1-10.3,10.3-20.4,10.5-20.8c1.2-2.8-0.1-6-2.9-7.2C199.8-92.9,199.1-93,198.4-93z"/>
			</g>
			<g>
				<path class="st2" d="M86.1-21.7c-1.6,0-3.2,0.7-4.3,2.1c-1.9,2.4-1.5,5.8,0.8,7.7c0.5,0.4,12.7,10.2,29.1,19.4
					c23.3,13.1,42.6,18.2,57.5,15.2c3-0.6,4.9-3.5,4.3-6.5c-0.6-3-3.5-4.9-6.5-4.3c-12.1,2.4-29.3-2.4-50-14
					c-15.6-8.7-27.5-18.3-27.6-18.4C88.5-21.3,87.3-21.7,86.1-21.7z"/>
			</g>
			<g>
				<path class="st2" d="M145.4-16.3c-1.1,0-2.3,0.4-3.3,1.1c-4.4,3.3-17.8,11.5-27.6,10.8c-3-0.2-5.7,2-5.9,5.1
					c-0.2,3,2,5.7,5.1,5.9c15.9,1.2,34.3-12.4,35-13c2.4-1.8,2.9-5.3,1.1-7.7C148.8-15.6,147.1-16.3,145.4-16.3z"/>
			</g>
			<g>
				<path class="st2" d="M133,6.2c-1.6,0-3.2,0.7-4.3,2.1c-1.9,2.4-1.5,5.8,0.9,7.7c11.9,9.4,18.1,30.6,18.1,30.9
					c0.8,2.9,3.9,4.6,6.8,3.8c2.9-0.8,4.6-3.9,3.8-6.8c-0.3-1-7.2-24.9-21.9-36.5C135.4,6.5,134.2,6.2,133,6.2z"/>
			</g>
			<g>
				<path class="st2" d="M127.1-115.7c-0.5,0-1,0.1-1.5,0.2c-2.9,0.8-4.6,3.8-3.8,6.8c5.1,18.5,5.2,39.4,5.2,39.6
					c0,3,2.5,5.5,5.5,5.5c0,0,0,0,0,0c3,0,5.5-2.5,5.5-5.5c0-0.9-0.1-22.6-5.6-42.5C131.7-114.1,129.5-115.7,127.1-115.7z"/>
			</g>
		</g>
		<g>
			<g>
				
					<ellipse transform="matrix(5.146519e-02 -0.9987 0.9987 5.146519e-02 27.4486 -390.5512)" class="st0" cx="-191.9" cy="-209.7" rx="19.2" ry="19.2"/>
			</g>
			<g>
				
					<ellipse transform="matrix(5.146469e-02 -0.9987 0.9987 5.146469e-02 2.4072 -386.3583)" class="st0" cx="-202.2" cy="-194.4" rx="15.9" ry="15.9"/>
			</g>
			<g>
				
					<ellipse transform="matrix(5.146630e-02 -0.9987 0.9987 5.146630e-02 13.4816 -362.7433)" class="st0" cx="-184.2" cy="-188.5" rx="11.1" ry="11.1"/>
			</g>
			<g>
				
					<ellipse transform="matrix(5.146630e-02 -0.9987 0.9987 5.146630e-02 70.9076 -345.4818)" class="st0" cx="-146.4" cy="-210.1" rx="11.1" ry="11.1"/>
			</g>
			<g>
				
					<ellipse transform="matrix(5.146296e-02 -0.9987 0.9987 5.146296e-02 82.072 -329.5853)" class="st0" cx="-132.5" cy="-208" rx="13.1" ry="13.1"/>
			</g>
		</g>
		<g>
			
				<ellipse transform="matrix(0.2831 -0.9591 0.9591 0.2831 253.8759 -46.5407)" class="st0" cx="95.8" cy="-193.1" rx="13.8" ry="13.8"/>
		</g>
		<g>
			
				<ellipse transform="matrix(0.2831 -0.9591 0.9591 0.2831 243.6426 -33.2647)" class="st0" cx="99.6" cy="-179.6" rx="6.8" ry="6.8"/>
		</g>
		<g>
			<g>
				<path class="st3" d="M217.4-162.2c1.5,3,2.4,6.3,2.4,9.9c0,11.9-9.7,21.6-21.6,21.6c-6.5,0-12.3-2.9-16.2-7.4
					c-2.5,6.8-9,11.7-16.7,11.7c-9.8,0-17.8-8-17.8-17.8c0-4.6,1.7-8.7,4.6-11.9c-0.4-0.3-0.7-0.7-1-1.1c-2.4,1.7-5.3,2.7-8.4,2.7
					c-8.1,0-14.6-6.5-14.6-14.6c0-4.7,2.2-8.8,5.7-11.5c-6-3.8-10-10.5-10-18.2c0-11.9,9.7-21.6,21.6-21.6c4,0,7.8,1.1,11,3
					c4.6-8.2,13.4-13.8,23.6-13.8c12.4,0,22.8,8.3,26,19.6c13.4,1.6,23.7,13,23.7,26.8C229.5-175.3,224.7-167,217.4-162.2z"/>
				<path class="st2" d="M179.8-236.7c-10,0-19.4,4.6-25.5,12.4c-2.9-1-6-1.6-9.1-1.6c-14.9,0-27.1,12.2-27.1,27.1
					c0,7.1,2.7,13.8,7.6,18.8c-2.1,3.2-3.2,7-3.2,10.9c0,11,8.9,20,19.9,20.1c-0.3,1.6-0.5,3.1-0.5,4.8c0,12.9,10.5,23.3,23.3,23.3
					c7.2,0,13.8-3.3,18.2-8.7c4.4,2.8,9.5,4.4,14.8,4.4c14.9,0,27.1-12.2,27.1-27.1c0-2.8-0.4-5.5-1.2-8.1c6.9-6.1,11-14.9,11-24.3
					c0-15.2-10.6-28.2-25.1-31.6C205-228.5,193.1-236.7,179.8-236.7z M156.2-211.8c0.5,0,1-0.1,1.4-0.2c1.4-0.4,2.6-1.3,3.4-2.6
					c3.8-6.8,11-11,18.8-11c9.6,0,18.1,6.4,20.7,15.6c0.6,2.1,2.4,3.7,4.6,4c10.8,1.3,18.9,10.5,18.9,21.3c0,7.2-3.6,13.9-9.7,17.9
					c-2.3,1.5-3.1,4.6-1.9,7.1c1.2,2.3,1.8,4.8,1.8,7.4c0,8.9-7.2,16.1-16.1,16.1c-4.6,0-9-2-12.1-5.5c-1.3-1.5-3.2-2.1-5.1-1.8
					c-1.9,0.4-3.5,1.7-4.2,3.5c-1.8,4.8-6.4,8.1-11.6,8.1c-6.8,0-12.3-5.5-12.3-12.3c0-3,1.1-5.9,3.2-8.2c2-2.2,1.9-5.6-0.3-7.7
					c-0.3-0.3-0.5-0.5-0.8-0.8c-1.9-2-5-2.4-7.2-0.8c-1.5,1.1-3.4,1.7-5.2,1.7c-5,0-9.1-4.1-9.1-9.1c0-2.8,1.3-5.4,3.5-7.2
					c1.4-1.1,2.2-2.8,2.1-4.6s-1-3.4-2.5-4.4c-4.7-3-7.4-8.1-7.4-13.6c0-8.9,7.2-16.1,16.1-16.1c2.9,0,5.7,0.8,8.2,2.3
					C154.3-212.1,155.3-211.8,156.2-211.8z"/>
			</g>
			<g>
				<g>
					
						<ellipse transform="matrix(0.2831 -0.9591 0.9591 0.2831 310.3882 35.5414)" class="st0" cx="179" cy="-189.8" rx="19.2" ry="19.2"/>
				</g>
				<g>
					
						<ellipse transform="matrix(0.2831 -0.9591 0.9591 0.2831 301.1693 60.9763)" class="st0" cx="191.4" cy="-171" rx="11.1" ry="11.1"/>
				</g>
			</g>
			<g>
				<ellipse transform="matrix(0.2831 -0.9591 0.9591 0.2831 294.5465 -1.887)" class="st0" cx="146" cy="-198" rx="6.8" ry="6.8"/>
			</g>
		</g>
	</g>
</symbol>
<use xlink:href="#New_Symbol_2"  width="511" height="506" x="-255.5" y="-253" transform="matrix(0.1658 0 0 -0.1658 42.373 41.9584)" style="overflow:visible;"/>
</svg>
