<?xml version="1.0" encoding="utf-8"?>
<!-- Generator: Adobe Illustrator 21.0.0, SVG Export Plug-In . SVG Version: 6.00 Build 0)  -->
<svg version="1.1" id="Layer_1" xmlns="http://www.w3.org/2000/svg" xmlns:xlink="http://www.w3.org/1999/xlink" x="0px" y="0px"
	 viewBox="0 0 88 75.6" style="enable-background:new 0 0 88 75.6;" xml:space="preserve">
<style type="text/css">
	.st0{fill-rule:evenodd;clip-rule:evenodd;fill:#FFFFFF;}
	.st1{fill:#154283;}
	.st2{fill-rule:evenodd;clip-rule:evenodd;fill:#FA636B;}
	.st3{fill:#FA636B;}
</style>
<g>
	<g>
		<g>
			<path class="st0" d="M35.4,74.6c-0.3-6.9,3.7-13.4,2-22.1c-2.1-11,1.4-14.7-3.1-18.8c-5-4.5-4-7.9-3.1-13c-2.5-1.1-4-2.7-4.5-4.7
				c-2-0.4-4.2-1.4-4.2-4.4c0-2.5,2.9-3.7,7-3.8c6-9.2,23-9.2,28.9,0c4.1,0.1,7,1.3,7,3.8c0,3-2.2,4-4.2,4.4c-0.5,2-2,3.5-4.5,4.7
				c0.9,5.1,1.8,8.4-3.1,13c-4.5,4.1,0.4,8.2-3.1,18.8c-2.2,6.6,2.3,15.2,2,22.1"/>
			<path class="st1" d="M52.6,75.6C52.5,75.6,52.5,75.6,52.6,75.6c-0.6,0-1-0.5-1-1c0.1-2.7-0.6-5.7-1.3-8.9
				c-1-4.6-2.1-9.3-0.7-13.5c1.7-5,1.4-8.5,1.2-11.3c-0.2-3.1-0.4-5.5,2.2-8c4.3-3.9,3.8-6.6,3-11.2c-0.1-0.3-0.1-0.6-0.2-0.9
				c-0.1-0.4,0.2-0.9,0.6-1c2.2-1,3.5-2.3,3.9-4c0.1-0.4,0.4-0.6,0.8-0.7c2.4-0.4,3.4-1.5,3.4-3.5c0-2.4-4.3-2.8-6.1-2.8
				c-0.3,0-0.6-0.2-0.8-0.4c-2.6-4-7.8-6.4-13.7-6.4S32.9,4.4,30.3,8.4c-0.2,0.3-0.5,0.4-0.8,0.4c-1.8,0-6.1,0.4-6.1,2.8
				c0,2,1.1,3,3.4,3.5c0.4,0.1,0.7,0.3,0.8,0.7c0.5,1.7,1.7,3.1,3.9,4c0.4,0.2,0.6,0.6,0.6,1c-0.1,0.3-0.1,0.6-0.2,0.9
				c-0.8,4.5-1.3,7.3,3,11.2c2.9,2.7,2.9,5.3,2.7,9c-0.1,2.6-0.2,5.9,0.7,10.4c1,5.3,0,9.9-0.9,13.9c-0.6,2.9-1.2,5.6-1.1,8.3
				c0,0.5-0.4,1-0.9,1c-0.5,0-1-0.4-1-0.9c-0.1-3,0.5-5.8,1.2-8.8c0.9-4,1.8-8.2,0.9-13.2c-0.9-4.8-0.8-8.1-0.7-10.8
				c0.1-3.5,0.2-5.4-2.1-7.5c-5-4.6-4.4-8.3-3.6-12.9c0-0.1,0-0.1,0-0.2c-2.1-1.1-3.5-2.6-4.2-4.4c-3.6-0.9-4.4-3.3-4.4-5.2
				c0-1.7,1-4.4,7.5-4.7C32.1,2.6,37.6,0,44,0s11.9,2.6,15,6.9c6.5,0.3,7.5,3.1,7.5,4.7c0,1.9-0.8,4.3-4.4,5.2
				c-0.7,1.8-2.1,3.3-4.2,4.4c0,0.1,0,0.1,0,0.2c0.8,4.7,1.5,8.3-3.6,12.9c-2,1.8-1.8,3.5-1.6,6.4c0.2,2.8,0.5,6.6-1.3,12
				c-1.2,3.6-0.2,8.1,0.8,12.4c0.7,3.2,1.5,6.5,1.3,9.4C53.5,75.2,53.1,75.6,52.6,75.6z"/>
		</g>
		<g>
			<g>
				<path class="st2" d="M60,11.3c-5.2,1.9-10.6,2.9-16,2.9c-5.4,0-10.7-1-16-2.9C16.7,7.1,0,11.8,0,24.9c0,4.7,1.2,7.8,2.9,9.8
					c0.2,2.1,2.1,3.1,3.3,2.9l0,0C6,37.3,5.9,37,5.8,36.7c0,0,0-0.1,0-0.1c-0.1-0.3-0.2-0.5-0.3-0.8c0-0.1,0-0.1-0.1-0.2
					c-0.1-0.2-0.1-0.5-0.2-0.7c0-0.1,0-0.2,0-0.2c0-0.3-0.1-0.6-0.1-1c0-0.3,0-0.7,0.1-1c0-0.1,0-0.2,0.1-0.3c0-0.2,0.1-0.5,0.1-0.7
					c0-0.1,0.1-0.2,0.1-0.3c0.1-0.2,0.1-0.4,0.2-0.7c0-0.1,0.1-0.2,0.1-0.3c0.1-0.3,0.3-0.5,0.4-0.8c0,0,0,0,0,0
					c0.2-0.3,0.4-0.6,0.6-0.9c0,0,0,0,0-0.1c0.2-0.2,0.7-0.8,0.8-0.8c0.2-0.2,0.4-0.4,0.7-0.6c0,0,0.1-0.1,0.1-0.1
					C8.8,27,9,26.8,9.3,26.6c0,0,0,0,0,0v0C9.1,25.7,8,25.2,6,25.5c-0.9-0.9-1.4-2.2-1.5-3.5C4.8,9.1,33.3,9.1,36.4,21.3
					c1.4,3.9,0.1,9.1,1.9,12.6c3.1,6,4.9,2.5,5,15.1c0,1.4-0.3,2.4-0.9,2.5c-1.7,0.3-2.2-3.1-3.4-2.1c-1.2,1,1.5,4,1.6,4.8
					c0.9,9.2-1.3,8.2-1.3,19.5h9.6c0-11.2-2-8.4-1.3-19.5c0.1-0.8,2.7-3.8,1.6-4.8c-1.2-1.1-1.7,2.4-3.4,2.1c-0.6-0.1-1-1.1-0.9-2.5
					c0.1-12.7,1.9-9.2,5-15.1c1.8-3.5,0.5-8.8,1.9-12.6c3.1-12.2,31.6-12.3,31.9,0.6c0,1.3-0.6,2.6-1.5,3.5c-2-0.3-3.1,0.3-3.3,1.2
					l0,0c0,0,0,0,0,0c0.3,0.2,0.6,0.4,0.9,0.6c0,0,0.1,0.1,0.1,0.1c0.2,0.2,0.5,0.4,0.7,0.6c0,0,0.6,0.6,0.8,0.8c0,0,0,0,0,0.1
					c0.2,0.3,0.4,0.6,0.6,0.9c0,0,0,0,0,0c0.2,0.3,0.3,0.5,0.4,0.8c0,0.1,0.1,0.2,0.1,0.3c0.1,0.2,0.2,0.4,0.2,0.7
					c0,0.1,0.1,0.2,0.1,0.3c0.1,0.2,0.1,0.4,0.1,0.7c0,0.1,0,0.2,0.1,0.3c0,0.3,0.1,0.7,0.1,1c0,0.3,0,0.7-0.1,1c0,0.1,0,0.2,0,0.2
					c0,0.3-0.1,0.5-0.2,0.7c0,0.1,0,0.1-0.1,0.2c-0.1,0.3-0.2,0.5-0.3,0.8c0,0,0,0.1,0,0.1c-0.1,0.3-0.3,0.6-0.4,0.9l0,0
					c1.2,0.2,3.1-0.8,3.3-2.9c1.7-2.1,2.9-5.1,2.9-9.8C88,11.8,71.3,7.1,60,11.3z"/>
			</g>
			<g>
				<g>
					<path class="st0" d="M26.9,16.2c-1.9,9-4.8,8.9-11.9,8.9c-2.1,0-4,0.6-5.6,1.6c0,0,0,0,0,0C9,26.8,8.8,27,8.5,27.2
						c0,0-0.1,0.1-0.1,0.1c-0.2,0.2-0.5,0.4-0.7,0.6c0,0-0.6,0.6-0.8,0.8c0,0,0,0,0,0.1c-0.2,0.3-0.4,0.6-0.6,0.9c0,0,0,0,0,0
						c-0.2,0.3-0.3,0.5-0.4,0.8c0,0.1-0.1,0.2-0.1,0.3c-0.1,0.2-0.2,0.4-0.2,0.7c0,0.1-0.1,0.2-0.1,0.3c-0.1,0.2-0.1,0.4-0.1,0.7
						c0,0.1,0,0.2-0.1,0.3c0,0.3-0.1,0.7-0.1,1c0,0.3,0,0.7,0.1,1c0,0.1,0,0.2,0,0.2c0,0.3,0.1,0.5,0.2,0.7c0,0.1,0,0.1,0.1,0.2
						c0.1,0.3,0.2,0.5,0.3,0.8c0,0,0,0.1,0,0.1C5.9,37,6,37.3,6.2,37.6c1.6,2.8,4.9,4.7,8.8,4.7c5.4,0,9.9-3.9,9.9-8.6
						c0-6.1-0.4-9.5,3.9-14.6C27.8,18.2,27.2,17.3,26.9,16.2z"/>
					<path class="st1" d="M15,43.3c-4.1,0-7.8-2-9.6-5.2c-0.2-0.3-0.3-0.6-0.5-1c0,0,0-0.1-0.1-0.1c-0.1-0.3-0.2-0.6-0.3-0.9l0-0.1
						c0-0.1,0-0.1,0-0.2c-0.1-0.2-0.1-0.5-0.2-0.8c0,0,0,0,0-0.1c0-0.1,0-0.1,0-0.2c-0.1-0.4-0.1-0.7-0.1-1.1c0-0.4,0-0.7,0.1-1.1
						c0-0.1,0-0.2,0-0.2l0-0.1c0-0.3,0.1-0.5,0.2-0.8c0-0.1,0.1-0.2,0.1-0.4c0.1-0.2,0.2-0.5,0.3-0.7l0-0.1c0-0.1,0.1-0.1,0.1-0.2
						c0.1-0.3,0.3-0.6,0.5-0.9c0,0,0,0,0-0.1c0.2-0.3,0.4-0.6,0.7-1c0,0,0,0,0.1-0.1C6.4,27.8,7,27.3,7,27.2
						c0.2-0.2,0.5-0.5,0.7-0.7l0,0c0,0,0.1,0,0.1-0.1c0.3-0.2,0.6-0.5,0.9-0.7c1.8-1.1,3.9-1.7,6.1-1.7l0.3,0c3.3,0,5.6,0,7.2-1
						c1.6-1,2.6-3.1,3.5-7.1c0.1-0.4,0.5-0.7,0.9-0.8c0.4,0,0.8,0.3,1,0.7c0.3,0.9,0.8,1.7,1.5,2.4c0.4,0.3,0.4,0.9,0.1,1.3
						c-3.7,4.4-3.7,7.5-3.7,12.7c0,0.4,0,0.9,0,1.3C25.8,39,21,43.3,15,43.3z M7.1,30.1C7.1,30.1,7.1,30.2,7.1,30.1
						c-0.2,0.3-0.3,0.5-0.4,0.8c0,0,0,0.1-0.1,0.1l0,0.1c-0.1,0.2-0.1,0.4-0.2,0.6c0,0.1-0.1,0.2-0.1,0.3c0,0.2-0.1,0.4-0.1,0.6
						c0,0,0,0.1,0,0.1c0,0,0,0.1,0,0.1c0,0.3-0.1,0.6-0.1,0.9c0,0.3,0,0.5,0.1,0.8c0,0,0,0.1,0,0.1c0,0,0,0.1,0,0.1
						c0,0.3,0.1,0.5,0.1,0.6c0,0,0,0.1,0,0.1l0,0.1c0.1,0.2,0.2,0.5,0.2,0.7l0,0.1c0.1,0.3,0.2,0.5,0.4,0.7c1.5,2.6,4.6,4.3,8,4.3
						c4.9,0,8.9-3.4,8.9-7.6c0-0.5,0-0.9,0-1.3c0-3.3,0-6,0.9-8.7C22.7,26,19.6,26,15.3,26L15,26c-1.8,0-3.6,0.5-5.1,1.4
						c-0.3,0.2-0.5,0.3-0.8,0.5L9,28.1c-0.2,0.2-0.4,0.3-0.6,0.5c-0.1,0.1-0.5,0.5-0.7,0.7c0,0,0,0,0,0.1
						C7.5,29.6,7.3,29.9,7.1,30.1z M27.2,18.9c-0.1,0.3-0.2,0.6-0.3,0.9c0.1-0.2,0.3-0.4,0.5-0.6C27.4,19,27.3,19,27.2,18.9z"/>
				</g>
				<g>
					<path class="st0" d="M82.8,32.7c0-0.1,0-0.2-0.1-0.3c0-0.2-0.1-0.5-0.1-0.7c0-0.1-0.1-0.2-0.1-0.3c-0.1-0.2-0.1-0.4-0.2-0.7
						c0-0.1-0.1-0.2-0.1-0.3c-0.1-0.3-0.3-0.5-0.4-0.8c0,0,0,0,0,0c-0.2-0.3-0.4-0.6-0.6-0.9c0,0,0,0,0-0.1
						c-0.2-0.2-0.7-0.8-0.8-0.8c-0.2-0.2-0.4-0.4-0.7-0.6c0,0-0.1-0.1-0.1-0.1c-0.3-0.2-0.6-0.4-0.9-0.6c0,0,0,0,0,0
						c-1.6-1-3.5-1.6-5.6-1.6c-7.1,0-10,0.1-11.9-8.9c-0.3,1.1-0.9,2-1.8,2.8c4.2,5.1,3.9,8.6,3.9,14.6c0,4.8,4.4,8.6,9.9,8.6
						c3.8,0,7.2-1.9,8.8-4.7c0.2-0.3,0.3-0.6,0.4-0.9c0,0,0-0.1,0-0.1c0.1-0.3,0.2-0.5,0.3-0.8c0-0.1,0-0.1,0.1-0.2
						c0.1-0.2,0.1-0.5,0.2-0.7c0-0.1,0-0.2,0-0.2c0-0.3,0.1-0.6,0.1-1C82.9,33.4,82.8,33,82.8,32.7z"/>
					<path class="st1" d="M73,43.3c-6,0-10.8-4.3-10.8-9.6c0-0.5,0-0.9,0-1.3c0-5.1,0-8.2-3.7-12.7c-0.3-0.4-0.3-1,0.1-1.3
						c0.8-0.7,1.3-1.5,1.5-2.4c0.1-0.4,0.5-0.7,1-0.7c0.4,0,0.8,0.3,0.9,0.8c0.9,4,1.9,6.2,3.5,7.1c1.6,1,3.9,1,7.2,1l0.3,0
						c2.2,0,4.3,0.6,6.1,1.7c0,0,0,0,0,0c0.3,0.2,0.6,0.4,0.9,0.6c0,0,0.1,0,0.1,0.1l0,0c0.3,0.2,0.5,0.4,0.7,0.7
						c0.1,0.1,0.6,0.6,0.8,0.9c0,0,0,0,0.1,0.1c0.2,0.3,0.5,0.6,0.7,0.9c0,0,0,0,0,0.1c0.2,0.3,0.3,0.6,0.5,0.9
						c0,0.1,0.1,0.1,0.1,0.2l0,0.1c0.1,0.2,0.2,0.5,0.3,0.7c0,0.1,0.1,0.2,0.1,0.4c0.1,0.2,0.1,0.5,0.2,0.8l0,0.1c0,0.1,0,0.2,0,0.2
						c0.1,0.4,0.1,0.8,0.1,1.1c0,0.4,0,0.7-0.1,1.1c0,0.1,0,0.1,0,0.2c0,0,0,0,0,0.1c-0.1,0.3-0.1,0.6-0.2,0.8c0,0.1,0,0.1,0,0.2
						l0,0.1c-0.1,0.3-0.2,0.6-0.3,0.9c0,0,0,0.1-0.1,0.1c-0.1,0.3-0.3,0.7-0.5,1C80.8,41.3,77.1,43.3,73,43.3z M63.2,23.7
						c1,2.7,1,5.3,0.9,8.7c0,0.4,0,0.9,0,1.3c0,4.2,4,7.6,8.9,7.6c3.4,0,6.4-1.6,8-4.3c0.1-0.2,0.3-0.5,0.4-0.8c0,0,0-0.1,0-0.1
						c0.1-0.2,0.2-0.4,0.2-0.7l0-0.1c0,0,0-0.1,0-0.1c0.1-0.2,0.1-0.4,0.1-0.7c0,0,0-0.1,0-0.1c0,0,0-0.1,0-0.1
						c0-0.3,0.1-0.6,0.1-0.9c0-0.3,0-0.5-0.1-0.9c0,0,0,0,0,0c0,0,0-0.1,0-0.1c0,0,0-0.1,0-0.1c0-0.2-0.1-0.4-0.1-0.6
						c0-0.1-0.1-0.2-0.1-0.3c-0.1-0.2-0.1-0.4-0.2-0.6l0-0.1c0,0,0-0.1-0.1-0.1c-0.1-0.3-0.2-0.5-0.4-0.7c0,0,0,0,0-0.1
						c-0.2-0.2-0.3-0.5-0.5-0.7c0,0,0,0,0-0.1c-0.2-0.2-0.6-0.7-0.7-0.7c-0.2-0.2-0.4-0.4-0.6-0.5L78.9,28c-0.3-0.2-0.5-0.4-0.8-0.5
						c0,0,0,0,0,0C76.6,26.5,74.8,26,73,26l-0.3,0C68.4,26,65.3,26,63.2,23.7z M80.9,30.1C80.9,30.1,80.9,30.1,80.9,30.1
						C80.9,30.1,80.9,30.1,80.9,30.1z M60.6,19.1c0.2,0.2,0.3,0.4,0.5,0.6c-0.1-0.3-0.2-0.6-0.3-0.9C60.7,19,60.6,19,60.6,19.1z"/>
				</g>
			</g>
		</g>
	</g>
	<g>
		<g>
			<path class="st0" d="M85.3,34.2c0-1.4-0.9-2.7-2.2-3.1c0-0.2,0.1-0.5,0.1-0.7c0-2.2-1.8-4-4-4c-0.1,0-0.3,0-0.4,0
				c-0.3-1.5-1.7-2.7-3.3-2.7c-1,0-1.9,0.4-2.5,1.1c-0.6-0.7-1.5-1.1-2.5-1.1c-1.1,0-2.1,0.5-2.7,1.4c-0.3-0.1-0.6-0.1-1-0.1
				c-1.8,0-3.3,1.5-3.3,3.3c0,0.8,0.3,1.6,0.8,2.1c-1.6,0.2-2.9,1.6-2.9,3.3c0,1.4,0.9,2.6,2.1,3.1c-0.2,0.5-0.3,1.1-0.3,1.6
				c0,2.2,1.8,4,4,4c0.6,0,1.2-0.1,1.7-0.4c0.7,1,1.9,1.6,3.2,1.6c1.2,0,2.3-0.5,3-1.4c0.8,0.5,1.7,0.8,2.7,0.8
				c2.7,0,4.8-2.2,4.8-4.8c0-0.3,0-0.6-0.1-0.9C84.1,37.2,85.3,35.8,85.3,34.2z"/>
			<path class="st1" d="M72.1,44.6c-1.3,0-2.6-0.5-3.5-1.4c-0.5,0.1-0.9,0.2-1.4,0.2c-2.8,0-5-2.3-5-5c0-0.4,0-0.8,0.1-1.2
				c-1.2-0.8-1.9-2.1-1.9-3.6c0-1.7,1-3.2,2.4-3.9c-0.2-0.5-0.3-1-0.3-1.6c0-2.4,1.9-4.3,4.3-4.3c0.2,0,0.4,0,0.6,0
				c0.8-0.8,1.9-1.3,3.1-1.3c0.9,0,1.7,0.3,2.5,0.8c0.7-0.5,1.6-0.8,2.5-0.8c1.8,0,3.3,1.1,4,2.6c2.6,0.1,4.7,2.3,4.7,5
				c0,0.1,0,0.1,0,0.2c1.3,0.8,2.1,2.2,2.1,3.7c0,1.8-1.1,3.3-2.6,4c0,0.1,0,0.1,0,0.2c0,3.2-2.6,5.8-5.8,5.8
				c-0.9,0-1.8-0.2-2.6-0.6C74.3,44.2,73.2,44.6,72.1,44.6z M68.8,41.1c0.3,0,0.6,0.1,0.8,0.4c0.6,0.8,1.5,1.2,2.5,1.2
				c0.9,0,1.7-0.4,2.3-1c0.3-0.4,0.9-0.4,1.3-0.2c0.6,0.4,1.4,0.7,2.2,0.7c2.1,0,3.9-1.7,3.9-3.9c0-0.2,0-0.5-0.1-0.7
				c-0.1-0.5,0.3-1,0.8-1.1c1.1-0.2,1.9-1.2,1.9-2.3c0-1-0.6-1.9-1.6-2.2c-0.4-0.2-0.7-0.6-0.6-1.1c0-0.2,0.1-0.4,0.1-0.6
				c0-1.7-1.4-3.1-3.1-3.1c-0.1,0-0.2,0-0.3,0c-0.5,0.1-0.9-0.3-1-0.8c-0.2-1.1-1.2-1.9-2.3-1.9c-0.7,0-1.3,0.3-1.8,0.8
				c-0.2,0.2-0.4,0.3-0.7,0.3s-0.5-0.1-0.7-0.3c-0.5-0.5-1.1-0.8-1.8-0.8c-0.8,0-1.5,0.4-1.9,1c-0.2,0.3-0.7,0.5-1.1,0.4
				c-0.2-0.1-0.5-0.1-0.7-0.1c-1.3,0-2.4,1.1-2.4,2.4c0,0.6,0.2,1.1,0.6,1.5c0.2,0.3,0.3,0.6,0.2,1c-0.1,0.3-0.4,0.6-0.8,0.6
				c-1.2,0.2-2.1,1.2-2.1,2.4c0,1,0.6,1.8,1.5,2.2c0.2,0.1,0.4,0.3,0.5,0.5c0.1,0.2,0.1,0.5,0,0.8c-0.2,0.4-0.3,0.8-0.3,1.3
				c0,1.7,1.4,3.1,3.1,3.1c0.5,0,0.9-0.1,1.3-0.3C68.6,41.1,68.7,41.1,68.8,41.1z"/>
		</g>
		<g>
			<g>
				<ellipse transform="matrix(0.2831 -0.9591 0.9591 0.2831 22.2497 95.7413)" class="st3" cx="75.2" cy="33" rx="2.4" ry="2.4"/>
			</g>
			<g>
				<ellipse transform="matrix(0.2831 -0.9591 0.9591 0.2831 20.8228 85.8176)" class="st3" cx="67.8" cy="29" rx="1.9" ry="1.9"/>
			</g>
			<g>
				<ellipse transform="matrix(0.2831 -0.9591 0.9591 0.2831 12.445 91.9852)" class="st3" cx="67.8" cy="37.7" rx="1.3" ry="1.3"/>
			</g>
			<g>
				<ellipse transform="matrix(0.2831 -0.9591 0.9591 0.2831 19.6921 99.832)" class="st3" cx="76.6" cy="36.7" rx="3.1" ry="3.1"/>
			</g>
			<g>
				<path class="st3" d="M76.1,33.7c-0.4-0.4-0.9-0.8-1.6-1c-1.8-0.5-3.8,0.5-4.3,2.3c-0.5,1.8,0.5,3.8,2.3,4.3
					c0.8,0.2,1.5,0.2,2.2-0.1"/>
			</g>
		</g>
	</g>
	<g>
		<path class="st0" d="M44.2,46.9c0.9-0.5,1.5-1.4,1.5-2.4c0-1.1-0.8-2.1-1.9-2.5c0.8-0.5,1.3-1.3,1.3-2.2c0-1.6-1.5-2.8-3.3-2.8
			c-0.7,0-1.4,0.2-1.9,0.5c-0.6-0.8-1.6-1.4-2.8-1.4c-1.8,0-3.3,1.3-3.3,2.8c0,0.8,0.4,1.6,1.1,2.1c-1.3,0.4-2.3,1.4-2.3,2.7
			c0,1.3,1,2.4,2.5,2.7c-0.5,0.5-0.8,1.1-0.8,1.9c0,1.6,1.5,2.8,3.3,2.8c0.7,0,1.4-0.2,2-0.6c0.5,1,1.7,1.6,3,1.6
			c1.8,0,3.3-1.3,3.3-2.8C45.8,48.3,45.2,47.4,44.2,46.9z"/>
		<path class="st1" d="M42.5,53.1c-1.3,0-2.5-0.5-3.3-1.4c-0.5,0.2-1.1,0.3-1.7,0.3c-2.3,0-4.2-1.7-4.2-3.8c0-0.5,0.1-1,0.3-1.4
			c-1.2-0.7-1.9-1.9-1.9-3.2c0-1.2,0.6-2.3,1.7-3c-0.3-0.5-0.5-1.1-0.5-1.7c0-2.1,1.9-3.8,4.2-3.8c1.2,0,2.3,0.4,3.1,1.2
			c0.5-0.2,1.1-0.3,1.6-0.3c2.3,0,4.2,1.7,4.2,3.8c0,0.7-0.2,1.4-0.7,2c0.8,0.7,1.3,1.7,1.3,2.7c0,0.9-0.3,1.7-0.9,2.4
			c0.6,0.7,0.9,1.5,0.9,2.4C46.7,51.4,44.8,53.1,42.5,53.1z M39.5,49.5c0.1,0,0.2,0,0.2,0c0.3,0.1,0.5,0.2,0.6,0.5
			c0.4,0.7,1.2,1.1,2.1,1.1c1.3,0,2.3-0.8,2.3-1.8c0-0.6-0.4-1.2-1-1.5c-0.3-0.2-0.5-0.5-0.5-0.8s0.2-0.7,0.5-0.8
			c0.6-0.3,1-0.9,1-1.5c0-0.7-0.5-1.3-1.3-1.6c-0.3-0.1-0.6-0.4-0.6-0.8c0-0.4,0.1-0.7,0.4-0.9c0.5-0.4,0.8-0.9,0.8-1.4
			c0-1-1-1.8-2.3-1.8c-0.5,0-1,0.1-1.4,0.4c-0.4,0.3-1,0.1-1.3-0.3c-0.4-0.6-1.2-1-2-1c-1.3,0-2.3,0.8-2.3,1.8c0,0.5,0.2,1,0.7,1.3
			c0.3,0.2,0.4,0.6,0.3,1c-0.1,0.4-0.3,0.6-0.7,0.7c-0.9,0.3-1.6,1-1.6,1.8c0,0.8,0.7,1.6,1.7,1.8c0.3,0.1,0.6,0.3,0.7,0.7
			c0.1,0.3,0,0.7-0.3,1c-0.2,0.2-0.5,0.6-0.5,1.2c0,1,1,1.8,2.3,1.8c0.5,0,1-0.1,1.4-0.4C39.2,49.6,39.3,49.5,39.5,49.5z"/>
	</g>
	<g>
		<ellipse transform="matrix(0.2831 -0.9591 0.9591 0.2831 -15.5498 70.7752)" class="st3" cx="39.6" cy="45.8" rx="1.6" ry="1.6"/>
	</g>
	<g>
		<ellipse transform="matrix(0.2831 -0.9591 0.9591 0.2831 -14.5994 68.6539)" class="st3" cx="38.6" cy="44.1" rx="2.1" ry="2.1"/>
	</g>
	<g>
		<ellipse transform="matrix(0.2831 -0.9591 0.9591 0.2831 -9.7375 68.1768)" class="st3" cx="40.7" cy="40.6" rx="1.1" ry="1.1"/>
	</g>
</g>
</svg>
